<?xml version="1.0" encoding="UTF-8"?>
<svg id="uuid-ddeace5b-2dbc-40bf-8fe9-bc54aff28103" data-name="Layer 1" xmlns="http://www.w3.org/2000/svg" viewBox="0 0 1920 1080">
  <defs>
    <style>
      .uuid-de6b8979-6171-451b-8932-31e4ad654cc1, .uuid-9fd03861-6434-4c78-ad1d-e225e8765cf2, .uuid-29b8d8cb-ac94-4c53-9df4-d0b4de6db1ec {
        stroke-width: 0px;
      }

      .uuid-9fd03861-6434-4c78-ad1d-e225e8765cf2, .uuid-29b8d8cb-ac94-4c53-9df4-d0b4de6db1ec {
        fill: #fff;
      }

      .uuid-29b8d8cb-ac94-4c53-9df4-d0b4de6db1ec {
        fill-rule: evenodd;
      }
    </style>
  </defs>
  <polygon class="uuid-29b8d8cb-ac94-4c53-9df4-d0b4de6db1ec" points="-440 -860 2360 -860 2360 1940 -440 1940 -440 -860 -440 -860"/>
  <path class="uuid-de6b8979-6171-451b-8932-31e4ad654cc1" d="m1876.35,78.27c3.8,0,6.65-.95,8.55-2.85,1.9-1.9,4.75-2.85,8.55-2.85,7.6,0,12.35-1.9,14.25-5.7l2.85-2.85s1.9-.48,5.69-1.42c3.8-.95,6.66-.48,8.55,1.42-3.8-1.9-8.55-2.85-14.24-2.85-7.6-3.8-14.25-5.7-19.95-5.7-7.6,0-15.21-1.9-22.8-5.7-1.9-1.9-5.7-2.85-11.4-2.85-15.21-3.8-26.6-4.75-34.2-2.85h-28.5l-14.25,2.85c-1.9,1.9-3.8,3.8-5.7,5.7-1.9,1.9-3.8,3.8-5.7,5.7,7.6,0,15.2,1.9,22.8,5.7l2.85,2.85c1.9-1.9,6.65-2.85,14.25-2.85,5.7-1.9,10.45-1.9,14.25,0,1.9,0,4.28.48,7.13,1.43,2.85.95,6.18.47,9.98-1.43l5.7,2.85,31.35,11.4h0Z"/>
  <path class="uuid-de6b8979-6171-451b-8932-31e4ad654cc1" d="m1882.05,149.52c3.8,1.9,7.6.95,11.4-2.85,0-3.8.95-5.7,2.85-5.7,3.8,0,5.7-1.9,5.7-5.69l2.85-2.85c3.8-1.9,7.6-6.65,11.39-14.25,0,0,.48-1.42,1.42-4.28.95-2.85.48-5.23-1.42-7.13-1.9,0-2.37-.48-1.43-1.42.95-.95,2.38-1.43,4.28-1.43s2.85-.48,2.85-1.43v-1.42l2.85-2.85-5.7-11.4c-1.9-1.9-5.7-2.85-11.39-2.85l-14.25,8.55c-5.7,1.9-10.45.95-14.25-2.85l5.7,22.8c3.8,1.9,3.8,4.75,0,8.55,0,7.6-1.9,15.2-5.7,22.8,0,3.8.95,5.7,2.85,5.7h0Z"/>
  <path class="uuid-de6b8979-6171-451b-8932-31e4ad654cc1" d="m1862.1,95.37c-1.9-7.6-6.65-13.78-14.25-18.53-7.6-4.75-16.15-6.18-25.65-4.28v5.7h-1.43c-.95,0-.48.95,1.43,2.85,13.3,0,26.6,4.75,39.9,14.25h0Z"/>
  <path class="uuid-de6b8979-6171-451b-8932-31e4ad654cc1" d="m1862.1,183.72c-7.6-1.9-14.25-5.7-19.95-11.4h8.55l11.4,2.85c3.8,0,5.7,1.9,5.7,5.7l-5.7,2.85h0Z"/>
  <path class="uuid-de6b8979-6171-451b-8932-31e4ad654cc1" d="m1822.19,152.37c-5.7,0-8.55-.95-8.55-2.85-1.9-1.9-4.75-2.85-8.55-2.85-1.9,0-2.85-1.9-2.85-5.7,0,0,.95-.95,2.85-2.85,3.8,1.9,9.5,6.65,17.1,14.25h0Z"/>
  <path class="uuid-de6b8979-6171-451b-8932-31e4ad654cc1" d="m1790.84,140.97c3.8-3.8,6.65-3.8,8.55,0-1.9,1.9-3.8,2.38-5.7,1.43-1.9-.95-2.85-1.43-2.85-1.43h0Z"/>
  <path class="uuid-de6b8979-6171-451b-8932-31e4ad654cc1" d="m1816.49,163.77c-1.9,1.9-5.22,1.43-9.98-1.43-4.75-2.85-9.03-6.17-12.83-9.98,11.4,3.8,19,7.6,22.8,11.4h0Z"/>
  <path class="uuid-de6b8979-6171-451b-8932-31e4ad654cc1" d="m1642.63,15.56c-1.9,1.9-4.28,1.9-7.13,0s-4.28-3.8-4.28-5.7c-1.9-3.8-3.8-7.13-5.7-9.98-1.9-2.85-3.8-5.22-5.7-7.13-1.9,0-2.85.48-2.85,1.43v1.43c0,1.9-.95,2.85-2.85,2.85-3.8,0-5.7-.95-5.7-2.85-1.9-5.7-5.7-9.5-11.4-11.4-3.8-3.8-5.7-6.65-5.7-8.55s-.48-3.32-1.43-4.28c-.95-.95-1.43-.47-1.43,1.43-3.8,0-9.5-1.9-17.1-5.7l-31.35-17.1-2.85-2.85c-1.9,0-2.85-1.9-2.85-5.7h14.25l-8.55-2.85c-3.8,0-5.7-.95-5.7-2.85s-1.9-2.85-5.7-2.85l-11.4,2.85h-5.7c-5.7-1.9-14.25-.95-25.65,2.85l-11.4,2.85c-1.9,0-3.32.48-4.27,1.43-.95.95-2.38.48-4.28-1.43,1.9-1.9,3.32-2.37,4.28-1.43.95.95,1.42.48,1.42-1.43s-1.9-2.85-5.7-2.85h-5.7c-3.8,0-5.7-1.9-5.7-5.7,3.8-3.8,3.8-5.7,0-5.7s-7.6-1.9-11.4-5.69l-8.55-8.55-14.25-11.4c9.5-3.8,14.25-6.66,14.25-8.55h2.85s1.9,1.9,5.7,5.7c-3.8,1.9-4.75,4.75-2.85,8.55l2.85,2.85c0,1.9,2.85,2.85,8.55,2.85,5.7-1.9,12.35-1.9,19.95,0l8.54-2.85h2.85c3.81,1.9,7.6.95,11.4-2.85h5.7c3.8,0,6.66-.95,8.55-2.85l17.1-5.7c15.21,0,26.6.95,34.2,2.85l2.85,2.85c0,1.9,4.75,4.75,14.25,8.55,0,0,8.55,5.7,25.65,17.1l22.8,25.65,2.85,11.4c1.9,7.6,7.6,11.4,17.1,11.4,0-3.8-1.9-5.7-5.7-5.7-1.9-3.8-1.9-6.65,0-8.55h5.7c0-3.8-1.9-5.7-5.7-5.7l-2.85-8.55c-3.8,0-5.7-1.9-5.7-5.7-5.7-11.4-9.51-18.05-11.4-19.95l-2.85-2.84c-1.9,0-2.85-.95-2.85-2.85v-5.7c-7.6-7.6-13.3-12.36-17.1-14.25-1.9-1.9-4.75-4.28-8.55-7.13-3.8-2.85-7.6-4.28-11.4-4.28-1.9,0-3.8-.48-5.7-1.43-1.9-.95-2.85-3.33-2.85-7.13,0,1.9-2.85,2.85-8.55,2.85-5.7-5.7-11.4-8.55-17.1-8.55s-9.5.95-11.4,2.85c-1.9,1.9-3.32,2.37-4.28,1.43-.95-.95-2.37-1.43-4.28-1.43l-11.4-2.85c-1.9-1.9-1.9-4.28,0-7.13,1.9-2.85,1.9-5.23,0-7.13h5.7l11.4-5.7h11.4c13.3,5.7,23.75,7.6,31.35,5.7v-2.85h-5.7v-5.7c5.7,0,8.55.95,8.55,2.85l11.4,5.7c3.8,1.9,9.5,2.85,17.1,2.85l14.25,2.85,11.4,11.4c3.8,3.8,6.65,5.7,8.55,5.7,3.8,0,5.7.95,5.7,2.85s1.9,4.75,5.7,8.55c7.6,3.8,11.4,8.55,11.4,14.25s1.9,8.55,5.7,8.55l2.85,5.7c1.9,1.9,3.32,4.27,4.28,7.12.95,2.85,3.32,5.23,7.13,7.13v2.85c0,1.9-.95,2.85-2.85,2.85h-8.55l5.7,2.85c1.9,0,2.85.95,2.85,2.85,1.9,7.6,7.6,11.4,17.1,11.4l5.7,2.85c0,1.9-.47,2.85-1.43,2.85h-1.42l2.85,2.85c3.8,1.9,6.66,1.9,8.55,0,3.8-3.8,8.55-3.8,14.25,0-1.9,1.9-3.8,2.38-5.7,1.43-1.9-.95-3.8-.47-5.7,1.43v5.7c1.9,0,3.8-.47,5.7-1.43,1.9-.95,3.81-.47,5.7,1.43h1.43c.95,0,1.43-.95,1.43-2.85l5.7-2.85h5.7v1.43c0,.95-.95,1.43-2.85,1.43-3.8,7.6-9.5,11.4-17.1,11.4l-11.4,5.7h-2.85c-1.9,0-4.28.48-7.13,1.43-2.84.95-6.17.48-9.97-1.43-3.8,3.8-7.6,5.7-11.4,5.7s-6.66.95-8.55,2.85c0,3.8-.95,6.65-2.85,8.55-1.9,1.9-2.85,3.8-2.85,5.7,0,7.6-1.9,9.5-5.7,5.7-1.9,0-3.8-.48-5.7-1.43-1.9-.95-3.8-.48-5.7,1.43h0Z"/>
  <path class="uuid-de6b8979-6171-451b-8932-31e4ad654cc1" d="m1585.62,29.81s-1.43-.95-4.28-2.85c-2.85-1.9-4.28-4.75-4.28-8.55,7.6,3.8,12.35,7.6,14.25,11.4h-5.7Z"/>
  <path class="uuid-de6b8979-6171-451b-8932-31e4ad654cc1" d="m1562.82,26.96c-7.6,0-13.3-1.9-17.1-5.7,11.4,3.8,17.1,5.7,17.1,5.7h0Z"/>
  <path class="uuid-de6b8979-6171-451b-8932-31e4ad654cc1" d="m1548.57,21.26c-3.8,0-11.4-1.9-22.8-5.7l-5.7-2.85c9.51,0,19,2.85,28.5,8.55h0Z"/>
  <path class="uuid-de6b8979-6171-451b-8932-31e4ad654cc1" d="m1511.51,7.01c-11.4,0-19-4.75-22.8-14.25,1.9-1.9,3.33-2.37,4.28-1.43.95.95,2.38,1.43,4.28,1.43,7.6,7.6,14.25,12.35,19.95,14.25h-5.7Z"/>
  <path class="uuid-de6b8979-6171-451b-8932-31e4ad654cc1" d="m1768.04,331.94c5.7,0,8.55-1.9,8.55-5.7h-5.7c-1.9,0-2.85,1.9-2.85,5.7h0Z"/>
  <path class="uuid-de6b8979-6171-451b-8932-31e4ad654cc1" d="m1636.93,386.09c-3.8,0-4.75-.95-2.85-2.85l11.4-22.8v-8.54c0-3.8-1.9-5.7-5.7-5.7-3.8,3.8-5.7,2.85-5.7-2.85v-5.7c-1.9-3.8-4.75-5.7-8.55-5.7s-5.7-1.9-5.7-5.7l-5.7-11.4c-1.9-1.9-5.7-2.85-11.4-2.85l-11.4,5.7c-3.8,0-5.7-.95-5.7-2.85v-5.7c0-9.51-6.65-14.25-19.95-14.25-5.7,0-9.5.95-11.4,2.85-1.9,1.9-3.8,1.9-5.7,0-1.9-3.8-6.65-5.7-14.25-5.7l-11.4,5.7c-5.7,0-8.55,1.9-8.55,5.7-3.8,7.6-7.6,9.5-11.4,5.7l-14.25-8.55c-3.8-1.9-9.5-2.85-17.1-2.85-3.8-5.7-6.65-9.51-8.55-11.4v-5.7h2.85c3.8,1.9,11.39,2.85,22.8,2.85l5.7-2.85c5.7-5.7,12.36-8.55,19.95-8.55l5.7-2.85c13.3-3.8,22.8-4.75,28.5-2.85,3.8-1.9,8.07-2.37,12.83-1.43,4.75.95,8.07,1.43,9.98,1.43h8.55c13.3,0,23.75,1.9,31.35,5.7l17.1,5.7c1.9,1.9,5.7,3.8,11.4,5.7,5.7,1.9,9.5,2.85,11.4,2.85,11.4,3.8,19.95,9.5,25.65,17.1,7.6,7.6,11.4,13.3,11.4,17.1s1.9,5.7,5.69,5.7h1.43c.95,0,.48.95-1.43,2.85h-2.84c0,1.9.95,2.85,2.84,2.85s2.85.95,2.85,2.85l-2.85,11.4v2.85c-1.9,7.6-9.5,18.05-22.8,31.35v2.85c0,3.8-.95,4.75-2.85,2.85h-8.55c-3.81,1.9-8.08,2.38-12.83,1.43-4.75-.95-8.08-1.43-9.98-1.43h0Z"/>
  <path class="uuid-de6b8979-6171-451b-8932-31e4ad654cc1" d="m1562.82,403.19l-2.85-8.55s1.42-.47,4.28-1.43c2.85-.95,4.28.48,4.28,4.28,1.9,1.9,3.33,2.38,4.28,1.43.95-.95,1.43-1.43,1.43-1.43v5.7c0,1.9-1.9,2.85-5.7,2.85l-5.7-2.85h0Z"/>
  <path class="uuid-de6b8979-6171-451b-8932-31e4ad654cc1" d="m1631.23,471.6c-1.9,1.9-2.85.95-2.85-2.85,0-1.9.95-2.85,2.85-2.85,0,1.9.95,2.37,2.85,1.43,1.9-.95,2.85-.48,2.85,1.43s-1.9,2.85-5.7,2.85h0Z"/>
  <path class="uuid-de6b8979-6171-451b-8932-31e4ad654cc1" d="m1622.68,488.7c3.8-3.8,8.55-4.75,14.25-2.85,0,1.9-.95,2.85-2.85,2.85h-11.4Z"/>
  <path class="uuid-de6b8979-6171-451b-8932-31e4ad654cc1" d="m1203.69,78.27c0-5.7.95-9.51,2.85-11.4,3.8-3.8,5.7-4.75,5.7-2.85l2.85,2.85-2.85,2.85c0,1.9-.95,3.8-2.85,5.7-1.9,1.9-3.8,2.85-5.7,2.85h0Z"/>
  <path class="uuid-de6b8979-6171-451b-8932-31e4ad654cc1" d="m1588.47,483c0-1.9.95-2.85,2.85-2.85s1.9-.95,0-2.85v-2.85c3.8-3.8,6.65-5.7,8.55-5.7v5.7h2.85c3.8,1.9,7.6.95,11.4-2.85,3.8-3.8,7.6-2.85,11.4,2.85,0,3.8-.95,5.7-2.85,5.7h-5.7c-3.8,3.8-7.6,4.75-11.4,2.85v-5.7c-3.8,0-7.13,1.43-9.98,4.28-2.85,2.85-5.22,3.33-7.13,1.43h0Z"/>
  <path class="uuid-de6b8979-6171-451b-8932-31e4ad654cc1" d="m1109.63,35.51l8.55-11.4c5.7-3.8,8.55-8.55,8.55-14.25l2.85-5.7c1.9,0,3.8-.95,5.7-2.85,1.9-1.9,2.85-3.8,2.85-5.7l2.85-2.85c1.9,0,8.55-2.85,19.95-8.55,3.8-3.8,6.65-4.75,8.55-2.85v5.7c0,5.7.95,9.5,2.85,11.4l-5.7,11.4c0,3.8-1.9,3.8-5.7,0-3.8-3.8-7.13-4.75-9.98-2.85-2.85,1.9-5.22,3.8-7.13,5.7l-2.85,5.7c-3.8,7.6-8.55,11.4-14.25,11.4l-2.85,5.7-5.7,5.7c-1.9,1.9-4.75,1.9-8.55,0v-5.7h0Z"/>
  <path class="uuid-de6b8979-6171-451b-8932-31e4ad654cc1" d="m1548.57,431.69c-1.9,0-3.8-.95-5.7-2.85-1.9-1.9-3.8-3.8-5.7-5.7-3.8-3.8-5.7-5.7-5.7-5.7l-11.4-2.85-2.85-2.85,17.1-2.85,5.7,2.85v5.7c3.81-3.8,7.6-2.85,11.4,2.85,0,1.9,1.9,2.85,5.7,2.85l11.4,5.7c3.8,3.8,3.8,5.7,0,5.7-1.9,1.9-4.75,2.85-8.55,2.85l-11.4-5.7h0Z"/>
  <path class="uuid-de6b8979-6171-451b-8932-31e4ad654cc1" d="m1571.37,497.25c0-3.8,1.9-5.7,5.7-5.7,1.9,0,2.85.95,2.85,2.85s-.95,2.85-2.85,2.85c-1.9,1.9-3.33,2.37-4.28,1.43-.95-.95-1.42-1.43-1.42-1.43h0Z"/>
  <path class="uuid-de6b8979-6171-451b-8932-31e4ad654cc1" d="m1189.44,163.77c-1.9,0-2.85.48-2.85,1.43v1.43-5.7c0-1.9-.95-2.85-2.85-2.85-1.9,1.9-4.75,2.85-8.55,2.85,0-1.9.48-2.85,1.43-2.85h1.43c1.9-1.9,1.9-2.85,0-2.85h2.85c3.8,0,5.7-1.9,5.7-5.7v-5.7c1.9,0,2.85-.47,2.85-1.43s-.95-1.43-2.85-1.43l2.85-5.69c1.9-1.9.95-4.75-2.85-8.55l5.7-2.85c0-1.9-.48-2.85-1.43-2.85h-1.42c-3.81,0-4.75-.95-2.85-2.85,3.8-3.8,4.75-6.66,2.85-8.55,0,0,.47-.95,1.42-2.85.95-1.9,2.37-2.85,4.28-2.85,0,0,1.43-.48,4.28-1.43,2.85-.95,4.28.47,4.28,4.28l2.85-8.55,8.55,2.85h1.43c.95,0,1.43.95,1.43,2.85l-2.85,5.7h-2.85l-5.7,5.7c1.9,3.8,2.37,6.65,1.43,8.55-.95,1.9-1.43,3.8-1.43,5.7-1.9,1.9-2.85,5.7-2.85,11.39v2.85c-3.8,1.9-4.75,5.7-2.85,11.4-3.8,7.6-5.7,12.36-5.7,14.25s-1.9,2.85-5.7,2.85v-8.55h0Z"/>
  <path class="uuid-de6b8979-6171-451b-8932-31e4ad654cc1" d="m1266.39,212.22h-1.43c-.95,0-1.42-.95-1.42-2.85l2.85-5.7c3.81,0,5.7,1.9,5.7,5.7l-5.7,2.85h0Z"/>
  <path class="uuid-de6b8979-6171-451b-8932-31e4ad654cc1" d="m1254.99,220.78c1.9-3.8,4.75-5.7,8.55-5.7,1.9,1.9,4.28,2.37,7.13,1.43,2.85-.95,5.23-1.43,7.13-1.43l2.85-2.85v-2.85c0-1.9.48-2.85,1.43-2.85h1.43l2.85,2.85c-1.9,5.7-4.75,8.55-8.55,8.55-5.7,0-10.45.95-14.25,2.85h-8.55Z"/>
  <path class="uuid-de6b8979-6171-451b-8932-31e4ad654cc1" d="m1280.65,243.58c-3.8,0-5.7-1.9-5.7-5.7,3.8-5.7,8.55-7.6,14.25-5.7,0,1.9-.47,2.85-1.42,2.85s-.47.95,1.42,2.85c-3.8,3.8-6.65,5.7-8.55,5.7h0Z"/>
  <path class="uuid-de6b8979-6171-451b-8932-31e4ad654cc1" d="m1559.97,522.9h2.85v-2.85c0-1.9-.48-2.85-1.43-2.85h-1.42l-5.7,2.85c1.9,1.9,3.33,2.37,4.28,1.43.95-.95,1.43-.48,1.43,1.42h0Z"/>
  <path class="uuid-de6b8979-6171-451b-8932-31e4ad654cc1" d="m1280.65,254.98h-1.42c-.95,0-1.43-.95-1.43-2.85v-1.43c0-.95.95-1.43,2.85-1.43,0-3.8,2.85-5.7,8.55-5.7l2.85,2.85c0,1.9-.95,2.85-2.85,2.85l-2.85,2.85-5.7,2.85h0Z"/>
  <path class="uuid-de6b8979-6171-451b-8932-31e4ad654cc1" d="m1329.1,314.84c1.9-1.9,4.75-1.9,8.55,0v2.85h-2.85l-5.7-2.85h0Z"/>
  <path class="uuid-de6b8979-6171-451b-8932-31e4ad654cc1" d="m1551.42,542.85c1.9,0,2.85-.48,2.85-1.42v-1.43c3.8-3.8,2.85-5.7-2.85-5.7h-2.85v5.7l2.85,2.85h0Z"/>
  <path class="uuid-de6b8979-6171-451b-8932-31e4ad654cc1" d="m1220.8,217.93c-1.9-1.9-2.38-4.75-1.42-8.55.95-3.8,3.32-5.7,7.13-5.7s4.75.95,2.85,2.85v2.85c3.8,1.9,4.75,4.75,2.85,8.55-1.9,3.8-4.75,4.75-8.55,2.85l-2.85-2.85h0Z"/>
  <path class="uuid-de6b8979-6171-451b-8932-31e4ad654cc1" d="m1568.52,671.11c9.5,0,16.15-4.75,19.95-14.25v-1.43c0-.95.95-1.42,2.85-1.42,3.8-3.8,4.75-5.7,2.85-5.7v-5.7c5.7,0,9.5-.95,11.4-2.85-5.7,0-6.65-1.9-2.85-5.7,0,0,1.9-1.9,5.7-5.7,7.6,0,12.35-2.85,14.25-8.55l11.4-14.25c3.8-7.6,5.7-12.35,5.7-14.25,0,0,1.9-1.9,5.7-5.7l11.4-14.24c-3.8,0-4.75-.95-2.85-2.85,9.5-9.51,14.25-14.25,14.25-14.25h-8.55c-1.9,0-4.75,1.9-8.55,5.7l-14.25,8.55-5.7,5.7c-1.9,0-4.75,1.9-8.55,5.69l-5.7,2.85-14.25,11.4-14.25,11.4-8.55,14.25-2.85,2.85-8.55,14.25,11.4-5.7v5.7c5.7-1.9,9.5-.95,11.4,2.85l2.85,2.85-8.55,2.85c-5.7,0-8.55.95-8.55,2.85h4.28c.95,0,1.43.95,1.43,2.85,1.9,0,2.85.48,2.85,1.43s-.95,1.43-2.85,1.43l-2.85,5.7s-3.8,3.8-11.4,11.4h0Z"/>
  <path class="uuid-de6b8979-6171-451b-8932-31e4ad654cc1" d="m1317.7,314.84s1.9,1.9,5.7,5.7h-8.55l2.85-5.7h0Z"/>
  <path class="uuid-de6b8979-6171-451b-8932-31e4ad654cc1" d="m1334.8,349.04c0-1.9.48-2.85,1.43-2.85h1.43c5.7,0,10.45-1.9,14.25-5.7v5.7l-11.4,2.85h-5.7Z"/>
  <path class="uuid-de6b8979-6171-451b-8932-31e4ad654cc1" d="m1337.65,366.13c-3.8,0-4.75-.95-2.85-2.85l2.85-2.85c-1.9-1.9-4.75-2.85-8.55-2.85,0-3.8.95-5.69,2.85-5.69h5.7c1.9-1.9,3.33-2.38,4.28-1.43.95.95,2.37,1.43,4.28,1.43l2.85,5.69c0,3.8-.95,6.66-2.85,8.55h-8.55Z"/>
  <path class="uuid-de6b8979-6171-451b-8932-31e4ad654cc1" d="m1274.95,303.43c1.9-1.9,4.28-2.38,7.13-1.43,2.85.95,5.23.47,7.13-1.43l-11.4-2.85-2.85,5.7h0Z"/>
  <path class="uuid-de6b8979-6171-451b-8932-31e4ad654cc1" d="m1306.3,337.64c-3.8-1.9-4.75-2.85-2.85-2.85l2.85-5.7h-2.85l-2.85-2.85c0-3.8,2.85-5.7,8.55-5.7,1.9,0,2.85,2.85,2.85,8.55,0,1.9-1.9,4.75-5.7,8.55h0Z"/>
  <path class="uuid-de6b8979-6171-451b-8932-31e4ad654cc1" d="m1306.3,351.89c3.8-7.6,7.6-13.3,11.4-17.1h5.7c0,5.7-1.9,8.55-5.7,8.55v1.42c0,.95-.95,1.43-2.85,1.43,0,1.9.95,2.85,2.85,2.85,0,3.8-.95,5.7-2.85,5.7,0,1.9-1.9,2.84-5.7,2.84l-2.85-5.69h0Z"/>
  <path class="uuid-de6b8979-6171-451b-8932-31e4ad654cc1" d="m1380.41,463.04c-1.9,0-3.33-.95-4.28-2.85-.95-1.9-2.37-2.85-4.28-2.85,1.9-1.9,4.75-2.37,8.55-1.43,3.8.95,5.7,1.43,5.7,1.43,0,1.9-.95,2.85-2.85,2.85s-2.85.95-2.85,2.85h0Z"/>
  <path class="uuid-de6b8979-6171-451b-8932-31e4ad654cc1" d="m1354.75,468.75h2.85c1.9-1.9,5.7-1.9,11.4,0-1.9,3.8-5.7,4.75-11.4,2.85l-2.85-2.85h0Z"/>
  <path class="uuid-de6b8979-6171-451b-8932-31e4ad654cc1" d="m1377.56,497.25c-1.9,1.9-3.8,1.9-5.7,0-1.9-1.9-2.85-3.8-2.85-5.7l2.85-2.85h2.85l2.85,2.85v5.7h0Z"/>
  <path class="uuid-de6b8979-6171-451b-8932-31e4ad654cc1" d="m1232.2,366.13c1.9,1.9,4.28,2.38,7.13,1.43,2.85-.95,4.28-1.43,4.28-1.43,1.9-1.9,1.9-3.8,0-5.7-5.7,0-9.51,1.9-11.4,5.7h0Z"/>
  <path class="uuid-de6b8979-6171-451b-8932-31e4ad654cc1" d="m1183.74,340.49c5.7,0,9.5-.95,11.4-2.85,3.8-3.8,6.65-2.85,8.55,2.85,0,0,1.9-1.9,5.7-5.7v-1.43c0-.95-.95-1.42-2.85-1.42,0-1.9-.48-2.85-1.43-2.85h-1.43l-5.7,2.85c-7.6,0-12.36.95-14.25,2.85v5.7h0Z"/>
  <path class="uuid-de6b8979-6171-451b-8932-31e4ad654cc1" d="m1195.14,349.04h-5.7c-1.9,0-2.85.47-2.85,1.43v1.43c0,3.8.95,5.69,2.85,5.69l11.4,2.85-5.7-11.39h0Z"/>
  <path class="uuid-de6b8979-6171-451b-8932-31e4ad654cc1" d="m1209.4,371.84v1.43c0,.95.95.48,2.85-1.43v-2.85c0-3.8-2.85-5.7-8.55-5.7,3.8,3.8,5.7,6.66,5.7,8.55h0Z"/>
  <path class="uuid-de6b8979-6171-451b-8932-31e4ad654cc1" d="m1217.95,408.89c-1.9,0-2.85-.95-2.85-2.85v-1.43c0-.95.95-1.42,2.85-1.42l5.7-2.85v8.55h-5.7Z"/>
  <path class="uuid-de6b8979-6171-451b-8932-31e4ad654cc1" d="m1283.5,505.8c1.9-3.8,3.8-5.7,5.7-5.7s4.75.95,8.55,2.85c-1.9,0-4.28.95-7.13,2.85-2.85,1.9-5.22,1.9-7.13,0h0Z"/>
  <path class="uuid-de6b8979-6171-451b-8932-31e4ad654cc1" d="m1274.95,491.55c-3.8,0-5.7-1.9-5.7-5.7,1.9,0,3.33-.48,4.28-1.43.95-.95,2.38-.48,4.28,1.43,1.9,0,2.85,1.9,2.85,5.7h-5.7Z"/>
  <path class="uuid-de6b8979-6171-451b-8932-31e4ad654cc1" d="m1215.1,454.49c0-1.9,1.9-2.85,5.7-2.85l5.7,5.7-8.55,2.85-2.85-5.7h0Z"/>
  <path class="uuid-de6b8979-6171-451b-8932-31e4ad654cc1" d="m1246.45,505.8h5.7s.95-.95,2.84-2.85h-2.84c-3.8,0-6.66-.95-8.55-2.85-1.9,0-2.85.95-2.85,2.85l5.7,2.85h0Z"/>
  <path class="uuid-de6b8979-6171-451b-8932-31e4ad654cc1" d="m1391.81,981.79l8.55-19.95-8.55,2.85v-8.55c0-3.8.95-6.66,2.85-8.55,3.8-3.8,5.7-8.55,5.7-14.25l-8.55,11.4-8.55,19.95c0,1.9.48,4.28,1.42,7.13s.48,6.17-1.42,9.98c0,1.9,1.9,2.85,5.7,2.85l2.85-2.85h0Z"/>
  <path class="uuid-de6b8979-6171-451b-8932-31e4ad654cc1" d="m-332.57,1212.66l8.55-11.4,28.5-25.65c3.8-7.6,5.7-13.3,5.7-17.1l2.85-14.25c1.9-1.9,2.85-4.28,2.85-7.13s.95-5.22,2.85-7.13l8.54-17.1,2.85-2.85c1.9-3.8,3.8-7.13,5.7-9.98,1.9-2.85,3.8-5.22,5.7-7.13,5.7,0,10.45-3.8,14.25-11.4l2.85-2.85c5.7,0,10.45-1.9,14.25-5.7l5.7-2.85c3.81,3.8,7.6,3.8,11.4,0,13.3-13.3,20.9-26.6,22.8-39.9,0-5.7.95-10.92,2.85-15.67,1.9-4.75,3.8-9.03,5.7-12.83,1.9-9.51,8.55-21.85,19.95-37.05l11.4-11.4c5.7,0,8.55-2.85,8.55-8.55s2.85-8.55,8.55-8.55h1.42c.95,0,1.43-.95,1.43-2.85,1.9-7.6,7.6-13.3,17.1-17.1l5.7-5.7c3.8-7.6,5.7-13.3,5.7-17.1v-5.7l2.85-5.7c3.8,0,3.8-1.9,0-5.7l2.85-5.7c3.8-3.8,5.7-6.65,5.7-8.55,7.6-9.5,11.4-20.9,11.4-34.2l19.95-39.9c5.7-5.7,8.55-13.3,8.55-22.8l5.7-14.25,2.85-5.7c3.81-1.9,7.6-6.66,11.4-14.25l22.8-31.35,25.65-37.05,28.5-28.5,8.55-5.7,11.4-8.55,14.25-5.7c5.7,0,10.45-.95,14.25-2.85,0-1.9,1.9-2.85,5.7-2.85,3.8,1.9,8.55,2.38,14.25,1.42,5.7-.95,10.45-1.42,14.25-1.42h11.4c5.7,1.9,8.55.95,8.55-2.85,1.9-7.6,5.22-15.2,9.97-22.8,4.75-7.6,8.08-14.25,9.98-19.95,5.7-7.6,12.36-14.25,19.95-19.95,0-1.9,1.9-2.85,5.7-2.85s7.6-1.9,11.4-5.7l5.7-2.85,5.7-8.55c0-7.6,4.75-16.15,14.25-25.65,0,3.8-.48,7.6-1.42,11.4-.95,3.8-.48,7.6,1.42,11.4l2.85-5.7c0-5.7,1.9-12.35,5.7-19.95l5.7-19.95c3.8-5.7,6.65-9.5,8.55-11.4,1.9-1.9,2.85-4.75,2.85-8.55,0-5.7,1.9-10.45,5.7-14.25,0-5.7.95-10.45,2.85-14.25l5.7-17.1v-1.42c0-.95-.95-1.43-2.85-1.43s-2.85-1.9-2.85-5.7l8.55-25.65c0-15.2.95-25.65,2.85-31.35v-2.85c-1.9-3.81-1.9-6.66,0-8.55,3.8-3.8,5.7-10.45,5.7-19.95,1.9-1.9,2.37-3.33,1.42-4.28-.95-.95-.48-2.38,1.43-4.28v-5.7c0-13.3.95-23.75,2.85-31.35l5.7-22.8c0-5.7-.95-10.45-2.85-14.25v-37.05c-1.9-3.8-2.37-7.13-1.43-9.98.95-2.85,1.43-5.22,1.43-7.13,1.9-3.8,2.85-8.55,2.85-14.25v-5.7c1.9-5.7,2.85-15.2,2.85-28.5v-5.7c-3.8-7.6-5.7-14.25-5.7-19.95,0-9.51,4.75-17.1,14.25-22.8,7.6-7.6,12.35-14.25,14.25-19.95l8.55-5.7,17.1-22.8,8.55-11.4c7.6-15.2,14.25-26.6,19.95-34.2,1.9-1.9,3.8-4.75,5.69-8.55,1.9-3.8,2.85-6.65,2.85-8.55,1.9-3.8,4.75-9.5,8.55-17.1,3.8-7.6,8.55-14.25,14.25-19.95l11.4-17.1,5.7-5.7c3.8-3.8,5.7-6.66,5.7-8.55,1.9-7.6,6.66-17.1,14.25-28.5l11.4-22.8c3.8-9.5,9.5-18.05,17.1-25.65l2.85-2.85,31.35-51.31c7.6-7.6,11.4-18.05,11.4-31.35l5.7-14.25c3.8-15.2,9.5-29.45,17.1-42.75v-5.7l8.55-17.1,14.25-14.25c3.8-1.9,8.55-2.85,14.25-2.85,15.2,3.8,24.7,8.55,28.5,14.25,11.4,9.5,18.06,21.85,19.95,37.05,3.8,19,5.7,34.2,5.7,45.6l-5.7,14.25-2.85,11.4c0,7.6-.95,13.3-2.85,17.1l-5.7,11.4-5.7,11.4c-5.7,5.7-8.55,11.4-8.55,17.1,0,3.8-1.9,9.5-5.69,17.1l-2.85,5.7c0,5.7-1.9,10.45-5.7,14.25l-2.85,2.85c-3.81,11.4-7.6,20.9-11.4,28.5-5.7,9.5-10.45,25.65-14.25,48.45l-5.7,34.2-2.85,5.7c0,7.6,3.8,11.4,11.4,11.4l11.4-2.85,8.55-2.85h11.4c11.39,0,19.95-.95,25.65-2.85l28.5-2.85c5.7,0,14.25,1.9,25.65,5.7,11.4,7.6,19.95,16.15,25.65,25.65,7.6,9.5,12.35,19.95,14.25,31.35l11.4,37.05,8.55,19.95c5.7,9.5,10.45,23.75,14.25,42.75,3.8,11.4,5.7,19.95,5.7,25.65,0,13.3-.95,23.76-2.85,31.35l-5.7,8.55c0,1.9-2.85,12.35-8.55,31.35v5.7l5.7,19.95c3.8,7.6,5.7,20.9,5.7,39.9l2.85,19.95c-1.9,7.6-5.7,14.25-11.4,19.95-3.8,5.7-8.55,10.45-14.25,14.25l-11.4,11.39c-3.8,1.9-12.35,6.66-25.65,14.25-3.8,1.9-7.6,4.28-11.4,7.13-3.8,2.85-7.6,5.23-11.4,7.13-3.8,3.8-11.4,5.7-22.8,5.7h-11.4c-5.7,0-8.55,2.85-8.55,8.55l-2.85,22.8-2.85,14.25c-1.9,3.8-2.85,8.07-2.85,12.83s-1.9,10.92-5.7,18.53l-2.85,8.55-8.54,31.35-5.7,8.55c-3.81,7.6-5.7,14.25-5.7,19.95l-2.85,5.7c-1.9,1.9-2.85,5.7-2.85,11.4,0,9.5,5.7,16.15,17.1,19.95l5.69,2.85,5.7-2.85h37.05c3.8,0,8.55-.47,14.25-1.43,5.7-.95,13.3-.47,22.8,1.43h28.5l25.65-2.85c1.9,0,6.65-1.9,14.25-5.69,1.9-1.9,4.28-2.85,7.13-2.85s5.22-.95,7.13-2.85l8.55-5.7h2.85c7.6,0,15.2-1.9,22.8-5.7,3.8,0,6.65-.95,8.55-2.85l11.39-14.25c7.6-3.8,12.36-7.6,14.25-11.4l2.85-5.7,5.7-2.85c0-1.9,1.43-3.8,4.28-5.7,2.85-1.9,5.23-2.85,7.13-2.85l19.95-19.95c1.9-5.7,9.51-13.3,22.8-22.8l2.85-2.85c1.9,0,2.85-.95,2.85-2.85,3.8-3.8,7.6-5.7,11.4-5.7,3.8-3.8,5.7-5.7,5.7-5.7,7.6-3.8,14.25-5.7,19.95-5.7h17.1c5.7,0,8.55-2.85,8.55-8.55,5.7-5.7,12.35-16.15,19.95-31.35l11.4-22.8,8.55-5.7c3.8-3.8,5.7-7.6,5.7-11.4v-2.85c-1.9-3.8-2.38-7.12-1.43-9.97.95-2.85.47-6.18-1.43-9.98,0-3.8-1.9-7.6-5.7-11.4l-8.55-5.7-8.55-8.55c0-3.8-1.9-9.51-5.7-17.1,0-1.9-4.75-9.51-14.25-22.8-5.7-5.7-8.55-10.45-8.55-14.25-1.9-1.9-2.85-4.28-2.85-7.13v-24.23c0-7.6.95-13.3,2.85-17.1l5.7-17.1,2.85-19.95c0-9.5,2.85-17.1,8.55-22.8l11.4-25.65c0-1.9,1.9-4.75,5.7-8.55,9.5-1.9,16.15-8.55,19.95-19.95,3.8-5.7,6.65-9.51,8.55-11.4,3.8-3.8,4.75-6.65,2.85-8.55l2.85-5.7,8.55-11.4,2.85-2.85c3.8-11.4,5.69-19,5.69-22.8v-17.1l2.85-5.7v-5.7l2.85-28.5v-2.85c-1.9-3.8-1.43-7.13,1.43-9.98,2.85-2.85,4.28-5.22,4.28-7.13l2.85-14.25c0-1.9,1.9-4.75,5.7-8.55l2.85-8.55c3.8-1.9,5.7-3.8,5.7-5.7s.95-3.8,2.85-5.69l2.85-5.7c1.9-1.9,2.85-5.7,2.85-11.4-1.9-5.7,0-8.55,5.7-8.55,3.8-3.81,5.7-7.6,5.7-11.4v-8.55l2.85-17.1,2.85-5.7,22.8-28.5,11.4-19.95,2.85-5.7s1.9-1.9,5.7-5.7c1.9,0,3.8-1.42,5.7-4.28,1.9-2.85,2.85-5.22,2.85-7.13l17.1-19.95,5.7-8.55c3.8-3.8,7.6-9.5,11.4-17.1,9.5-9.5,14.25-14.25,14.25-14.25l17.1-22.8c7.6-7.6,11.4-13.3,11.4-17.1,1.9-1.9,5.7-8.55,11.4-19.95,3.8-11.4,9.5-18.06,17.1-19.95,3.8-3.8,5.69-6.65,5.69-8.55,3.8-3.8,6.66-5.7,8.55-5.7,5.7-3.8,8.55-8.55,8.55-14.25,0-3.8.95-6.65,2.85-8.55,0,0,4.75-4.75,14.25-14.25,1.9-1.9,3.81-1.9,5.7,0,3.81,1.9,6.66.95,8.55-2.85l11.4-8.55,5.7-2.85c5.7,0,8.55-2.85,8.55-8.55,0-3.8,1.9-5.7,5.7-5.7s5.7-.95,5.7-2.85c-1.9-1.9-.95-2.85,2.85-2.85l25.65-8.55c1.9,0,2.37.48,1.43,1.43-.95.95-.48,2.38,1.43,4.28h5.7c7.6-3.8,14.25-5.7,19.95-5.7v-2.85c0-3.8,1.9-5.7,5.7-5.7h1.42c.95,0,1.43-.95,1.43-2.85s-.48-2.85-1.43-2.85h-1.42c0-1.9.47-2.85,1.42-2.85h9.98l11.4,2.85,11.4-2.85c0-1.9.95-3.32,2.85-4.28,1.9-.95,2.85-2.37,2.85-4.28h2.85c3.8,0,7.6-.47,11.4-1.43,3.8-.95,8.55-.47,14.24,1.43l17.1-2.85h22.8c5.7,0,10.45.95,14.25,2.85l17.1,2.85c7.6,3.81,14.25,6.18,19.95,7.13,5.7.95,10.45,1.43,14.25,1.43,1.9,0,14.25,2.85,37.05,8.55,3.8,3.8,9.5,6.18,17.1,7.13,7.6.95,13.3,1.43,17.1,1.43l17.1,5.7c1.9,1.9,4.75,2.85,8.55,2.85,3.8-3.8,7.6-3.8,11.4,0l28.5,11.4c5.7,0,9.51,2.85,11.4,8.55h2.85l8.55,2.85c11.4,7.6,19.95,12.35,25.65,14.25l34.2,11.4,14.25,8.55c1.9,1.9,5.22,4.28,9.98,7.13,4.75,2.85,9.03,6.17,12.83,9.98l5.7,2.85,8.55,5.7c0,1.9,2.85,5.7,8.55,11.4l8.55,2.85,2.85,2.85c0,5.7,3.8,10.45,11.4,14.25l17.1,11.4,14.24,14.25c11.4,11.39,18.06,17.1,19.95,17.1l2.85,5.7c-1.9,1.9-2.37,3.33-1.43,4.28.95.95,2.38,1.43,4.28,1.43,1.9,1.9,2.85,4.75,2.85,8.55v1.43c0,.95.95,1.43,2.85,1.43s2.85,1.9,2.85,5.7l8.55,8.55c3.8,3.8,7.6,9.51,11.4,17.1,0,1.9.95,4.75,2.85,8.55,1.9,3.8,4.75,6.65,8.55,8.55,7.6,11.4,12.35,19.95,14.25,25.65l8.55,11.4,11.4,14.25,5.7,5.7,2.85,5.7,2.85,11.4c0,1.9,1.9,6.65,5.7,14.25l2.85,5.7c-5.7,0-8.55-1.9-8.55-5.7,0-1.9-1.9-4.75-5.7-8.55-3.8,0-4.75-2.85-2.85-8.55-7.6-1.9-14.25-7.6-19.95-17.1v-2.85c3.8-3.8,3.8-5.7,0-5.7l-5.7-2.85c-1.9,0-2.85-1.9-2.85-5.7,3.8,0,3.8-1.9,0-5.7-3.8-5.7-7.6-6.65-11.4-2.85-3.8,0-6.65-.95-8.55-2.85-3.8-3.8-4.75-6.65-2.85-8.55-1.9,0-3.32-.48-4.28-1.42-.95-.95-2.37-1.43-4.28-1.43v-2.85h5.7c3.8,0,5.7-.95,5.7-2.85s-1.9-2.85-5.7-2.85v-2.85h1.42c.95,0,.48-.95-1.42-2.85-1.9-1.9-4.28-2.37-7.13-1.43-2.85.95-5.22.48-7.13-1.43,0,0-1.43.95-4.28,2.85-2.85,1.9-3.32,3.8-1.43,5.7,0,0-.47.48-1.43,1.43-.95.95-2.37.48-4.28-1.43l-8.55-2.85-2.85-2.85c1.9-1.9,1.9-3.33,0-4.28-1.9-.95-2.85-1.43-2.85-1.43l-2.85-5.7h2.85c1.9,0,2.85-.95,2.85-2.85,0-3.8,1.9-3.8,5.7,0,3.81,3.8,5.7,1.9,5.7-5.7-3.8,0-5.7-.95-5.7-2.85-1.9-1.9-4.75-2.85-8.55-2.85h-5.7v-2.85h5.7c1.9,0,2.85-.95,2.85-2.85h-11.4c-3.8,0-7.6-1.9-11.39-5.7,0-3.8-2.85-5.7-8.55-5.7l2.85,5.7,2.85,5.7v8.55l5.7,8.55c1.9,1.9,2.85,4.75,2.85,8.55l-11.4-2.85c0,5.7,1.9,8.55,5.7,8.55l2.85,2.85v5.7c1.9,1.9,5.7,7.6,11.39,17.1,1.9,1.9,2.85,4.75,2.85,8.55l5.7,17.1,5.7,11.4c0,3.8.95,6.65,2.85,8.55,3.8,1.9,5.7,6.65,5.7,14.25v2.85h-2.85l-5.7-5.7c-7.6-7.6-11.4-13.3-11.4-17.1-1.9-3.8-1.9-5.7,0-5.7l2.85-2.85h-2.85l-5.7-2.85c-3.8-7.6-5.69-12.35-5.69-14.25,0-7.6-1.9-11.4-5.7-11.4,0-5.7-2.85-8.55-8.55-8.55-1.9-3.8-2.85-5.7-2.85-5.7l-2.85-8.55-5.7-11.4c-1.9-1.9-5.7-8.55-11.4-19.95v-8.55c-1.9,0-2.38-.47-1.43-1.43.95-.95.47-1.43-1.42-1.43-1.9-1.9-2.38-2.85-1.43-2.85s1.43-.95,1.43-2.85c-3.81,0-6.66.95-8.55,2.85,0,1.9-1.9,2.85-5.7,2.85l-5.7-2.85v-2.85h-5.7l8.55-2.85h5.7s1.9-1.9,5.7-5.7c1.9-1.9,1.9-2.85,0-2.85h-2.85c1.9-1.9,3.32-2.37,4.28-1.43.95.95,2.37.48,4.28-1.42l-5.7-2.85c-3.8,0-5.7-.95-5.7-2.85s-1.9-2.85-5.7-2.85c0-1.9.47-3.32,1.43-4.28.95-.95.47-2.37-1.43-4.28-1.9,0-3.33-.95-4.28-2.85-.95-1.9-2.38-2.85-4.28-2.85-1.9-3.8-5.7-5.69-11.4-5.69h-1.43c-.95,0-1.43-.95-1.43-2.85l2.85-2.85h5.7c5.7,0,6.65-1.9,2.85-5.7v-2.85c5.7-3.8,13.3-3.8,22.8,0l-5.7,11.4c5.7,0,8.55.95,8.55,2.85l11.4,5.69c5.7,0,9.5,2.85,11.4,8.55,0,1.9,1.9,2.85,5.7,2.85,1.9,0,2.85.48,2.85,1.43v1.43c0,1.9,1.9,4.75,5.7,8.55,1.9,0,2.85.95,2.85,2.85s-.95,3.33-2.85,4.28c-1.9.95-2.85,2.38-2.85,4.28,3.8,3.8,5.7,3.8,5.7,0,0-1.9,1.9-2.85,5.7-2.85h2.84l-2.84-5.7c0-1.9.47-2.85,1.42-2.85h1.42l5.7,8.55v1.42c0,.95-.95,1.43-2.85,1.43v2.85h2.85c1.9,0,2.85.95,2.85,2.85l2.85,2.85c0,1.9.48,2.85,1.42,2.85h1.43c3.8-3.8,4.75-5.7,2.85-5.7l-2.85-5.7c7.6,3.8,12.36,7.6,14.25,11.4v-5.7c-7.6-7.6-12.35-13.3-14.25-17.1l-5.7-5.7c-3.8-1.9-5.7-3.8-5.7-5.7s-.95-3.8-2.85-5.7c0-3.8-.95-5.7-2.84-5.7l-19.95-17.1-25.65-22.8-5.7-5.7c-5.7-7.6-12.36-14.25-19.95-19.95l-14.25-11.4-8.55-5.7-11.4-5.7-11.4-2.85v-2.85h8.55l-34.2-11.4c-3.8,0-5.7-.95-5.7-2.85l-8.55-2.85-8.55-5.7c0-1.9-2.85-2.85-8.55-2.85s-9.5-.95-11.4-2.85l-11.4-5.7-22.8-8.55c-7.6-3.8-13.3-5.7-17.1-5.7-11.4,0-19-1.9-22.8-5.7-1.9,0-3.33-.48-4.28-1.43-.95-.95-2.38-.48-4.28,1.43l-14.25-2.85c0-1.9-1.9-2.85-5.7-2.85l-25.65-8.55c-11.4-3.8-19.95-5.7-25.65-5.7l-19.95-2.85c-7.6-3.8-15.2-5.7-22.8-5.7,0,0-1.9,1.9-5.7,5.7,5.7,0,10.45.95,14.25,2.85h-5.7l-11.4-2.85c-3.8-1.9-6.65-.95-8.55,2.85h-14.25c0,1.9.95,2.85,2.85,2.85s1.9.96,0,2.85h-37.05c-3.8,3.8-8.55,4.75-14.25,2.85h-17.1l5.7,2.85c1.9-1.9,5.7-2.85,11.4-2.85,7.6,3.8,13.3,5.7,17.1,5.7,5.7,5.7,11.39,6.65,17.1,2.85h2.85l-2.85,5.7v2.85h-5.7c0-1.9-.47-2.85-1.42-2.85h-1.43c-3.8,3.8-5.69,3.8-5.69,0-3.8-3.8-8.08-5.22-12.83-4.28-4.75.95-8.08,1.43-9.98,1.43-1.9,5.7-4.75,8.55-8.55,8.55-3.8-1.9-7.13-1.43-9.98,1.42-2.85,2.85-5.23,4.28-7.13,4.28,3.8,3.8,7.6,5.7,11.4,5.7-1.9,0-3.33.48-4.28,1.43-.95.95-2.38,2.37-4.28,4.28,5.7,0,9.5.95,11.4,2.85h5.7c1.9-1.9,5.7-1.9,11.4,0,1.9,1.9,4.75,2.37,8.55,1.43,3.8-.95,6.65-.48,8.55,1.43l5.69-2.85h-5.69c-5.7-5.7-11.4-8.55-17.1-8.55h-2.85c-1.9-3.8-4.75-5.7-8.55-5.7h-8.55c3.8,0,5.7-1.9,5.7-5.7h8.55c11.4,7.6,20.9,12.35,28.5,14.25,3.8,1.9,7.6,3.8,11.4,5.7,3.8,1.9,8.55,2.85,14.25,2.85h5.7c0,1.9,1.9,2.85,5.7,2.85h11.4l-5.7,2.85c7.6,0,13.3-.95,17.1-2.85,9.51,0,16.15-.95,19.95-2.85-3.8,3.8-6.65,5.7-8.55,5.7l-22.8,5.7c-1.9,0-2.85,1.9-2.85,5.7,5.7-3.8,11.4-3.8,17.1,0,1.9,1.9,3.33,2.37,4.28,1.43.95-.95,1.42-1.43,1.42-1.43,0-1.9-.95-2.85-2.85-2.85h-1.42c-.95,0-1.43-.95-1.43-2.85h5.7l5.7,2.85c3.8,1.9,7.13,2.37,9.98,1.43,2.85-.95,6.18-.48,9.98,1.42,3.8-3.8,8.55-3.8,14.25,0l11.4,5.7c1.9,0,2.85.95,2.85,2.85l-2.85,2.85s-.48-.48-1.42-1.42c-.95-.95-1.43-.48-1.43,1.42s-.95,2.85-2.85,2.85-2.85.95-2.85,2.85l14.25,2.85c-1.9,1.9-1.9,3.8,0,5.7l11.4,5.7v5.7h-2.85c-1.9-3.8-7.6-7.6-17.1-11.4h-2.85c-1.9,0-2.37.47-1.43,1.42.95.95,1.43,1.43,1.43,1.43l2.85,2.85,5.7,8.55c-3.8,0-5.7.95-5.7,2.85,11.4,3.8,18.05,6.65,19.95,8.55l5.7,2.85c1.9-1.9,3.8-.95,5.7,2.85h-8.55l-14.25-2.85c-3.8,0-7.6.47-11.4,1.42-3.8.95-8.55.47-14.25-1.42,1.9,1.9,5.22,3.32,9.98,4.28,4.75.95,8.07,2.37,9.98,4.28h5.7c5.7,0,9.5,2.85,11.4,8.55,5.7,5.7,9.5,8.55,11.4,8.55,0,1.9-.95,2.85-2.85,2.85h-2.85c0,1.9.48,3.32,1.43,4.28.95.95,2.37,1.43,4.28,1.43h-8.55c-3.8,0-5.7.95-5.7,2.85v2.85c1.9,1.9,3.33,1.9,4.28,0,.95-1.9,2.37-2.85,4.28-2.85,3.8,1.9,5.7,4.75,5.7,8.54v1.42c0,.95.95,1.43,2.85,1.43s3.8,1.43,5.7,4.28c1.9,2.85,3.8,4.28,5.7,4.28,0,3.8-2.85,5.7-8.55,5.7l17.1,5.7c0,3.8-1.9,5.7-5.7,5.7,1.9,1.9,3.8,2.38,5.7,1.43,1.9-.95,3.8-.47,5.7,1.43l8.55,5.7-2.85,5.7,2.85,5.7c0,1.9-.96,2.85-2.85,2.85s-3.8.95-5.7,2.85c-1.9,1.9-3.81,2.85-5.7,2.85h-5.7c-3.8-3.8-7.6-4.75-11.4-2.85-1.9,0-2.85-.47-2.85-1.43v-1.43c0-3.8-1.9-5.7-5.7-5.7-5.7,0-9.5.95-11.4,2.85,0,1.9-.48,2.85-1.42,2.85s-1.43-.95-1.43-2.85h-1.43c-.95,0-1.42-.95-1.42-2.85,0,0,1.9-1.9,5.7-5.7,1.9,0,3.33.48,4.28,1.43.95.95,2.37.48,4.28-1.43l-8.55-2.85c-1.9-3.8-1.9-7.6,0-11.4-3.8,1.9-8.55,1.9-14.25,0h-5.7c-3.8,1.9-7.13,2.38-9.98,1.43-2.85-.95-5.22-1.43-7.13-1.43-5.7,0-9.5-1.9-11.4-5.7,1.9-1.9,4.28-2.37,7.13-1.43,2.85.95,5.22.48,7.13-1.43-9.5,0-16.15-1.9-19.95-5.7,3.8-1.9,8.07-3.8,12.83-5.7,4.75-1.9,9.03-3.8,12.83-5.7-1.9-1.9-4.75-2.85-8.55-2.85,1.9,1.9.95,3.8-2.85,5.7l-14.25,8.55c-3.8,3.8-7.6,3.8-11.4,0-1.9-1.9-4.75-2.37-8.55-1.43-3.8.95-5.7,1.43-5.7,1.43-3.8,3.8-7.6,4.75-11.4,2.85l-2.85,2.85c0,1.9-.47,2.85-1.43,2.85h-1.43c-1.9,1.9-4.28,2.38-7.13,1.43-2.85-.95-5.22-.47-7.13,1.43,1.9-1.9,3.33-3.32,4.28-4.28.95-.95,2.38-1.43,4.28-1.43l-2.85-2.85c-3.8-3.8-7.6-4.75-11.4-2.85l-5.7,2.85c-1.9,0-2.85-1.9-2.85-5.7-5.7,0-8.55,1.9-8.55,5.7-3.8,3.8-8.07,6.66-12.82,8.55-4.75,1.9-8.08,2.85-9.98,2.85l-2.85-2.85-8.55,2.85c-1.9,1.9-4.75,1.9-8.55,0,9.5-5.7,19.95-8.55,31.35-8.55-1.9-1.9-3.33-2.37-4.28-1.42-.95.95-2.38.48-4.28-1.43,3.8-3.8,7.6-5.7,11.4-5.7l5.7-2.85c-3.8-3.8-5.7-3.8-5.7,0-11.4,3.8-18.06,5.7-19.95,5.7h-2.85c-1.9-1.9-4.75-2.85-8.55-2.85v-2.85l-8.55,2.85c-9.51,3.8-16.15,4.75-19.95,2.85-3.8,0-7.13.48-9.98,1.43-2.85.95-6.18.48-9.98-1.43,1.9,1.9,3.33,2.38,4.28,1.43.95-.95,2.37-.47,4.28,1.43,0,1.9-.48,2.85-1.43,2.85h-1.43c-3.8,0-7.13.48-9.98,1.43-2.85.95-6.18.48-9.98-1.43-5.7,1.9-14.25,2.85-25.65,2.85l5.7,2.85h2.85c-5.7,3.8-10.45,7.6-14.25,11.4,0,0-.48.48-1.43,1.43-.95.95-1.43.48-1.43-1.43l-8.55,2.85s1.9,1.9,5.7,5.7c-1.9,1.9-1.9,4.75,0,8.55-1.9,1.9-4.75,1.9-8.55,0-3.8-1.9-6.65-2.85-8.55-2.85,1.9,3.81,1.9,7.6,0,11.4-7.6,7.6-14.25,12.35-19.95,14.25v2.85s-1.9,1.9-5.7,5.7h-1.42c-.95,0-1.43.95-1.43,2.85,0,3.8-2.85,5.7-8.55,5.7v2.85c1.9,0,.95,1.9-2.85,5.7h-1.43c-.95,0-1.43.95-1.43,2.85h5.7c3.8-7.6,8.55-9.5,14.25-5.7-1.9,1.9-4.75,4.28-8.55,7.13-3.8,2.85-8.55,4.28-14.25,4.28,1.9,1.9,2.38,3.33,1.42,4.28-.95.95-1.42,1.43-1.42,1.43,1.9,1.9,3.33,2.37,4.28,1.43.95-.95,2.38-1.43,4.28-1.43l5.7-5.7,5.7,2.85-2.85,5.7-11.4,8.55-5.7,8.55c-3.8,3.8-5.7,7.6-5.7,11.4,1.9,0,4.28-.95,7.13-2.85,2.85-1.9,5.23-.95,7.13,2.85-3.8,3.8-3.8,6.65,0,8.55,0,0-.47-.48-1.42-1.42-.95-.95-.47-1.43,1.42-1.43l8.55-8.55c5.7-3.8,8.55-6.65,8.55-8.55h5.7l11.4-8.55c5.7-5.7,12.36-9.5,19.95-11.4,1.9-1.9,3.8-1.9,5.7,0,0,3.8-.95,5.7-2.85,5.7l2.85,2.85v5.7c-1.9,0-3.8.95-5.7,2.85-1.9,1.9-3.8,2.85-5.7,2.85h-2.85c0,1.9-.95,3.8-2.85,5.7-1.9,1.9-3.8,2.85-5.7,2.85l-14.25,19.95c0,1.9-1.9,4.75-5.7,8.55,0,3.8-.95,5.7-2.85,5.7-3.8,0-7.6,1.9-11.4,5.7-3.8,3.8-9.5,7.6-17.1,11.4-7.6,7.6-11.4,11.4-11.4,11.4l-5.69,2.85c1.9,1.9.95,4.75-2.85,8.54,1.9,0,3.32-.47,4.28-1.43.95-.95,2.37-.47,4.27,1.43l-8.54,5.7c-1.9,0-4.75,1.9-8.55,5.7,1.9,1.9,5.7,2.85,11.4,2.85,0,1.9-.95,2.85-2.85,2.85s-2.85.95-2.85,2.85c1.9,1.9.95,2.85-2.85,2.85,0,0-4.75,4.75-14.25,14.25l-14.25,8.55c-5.7,0-8.55,2.85-8.55,8.55-1.9,1.9-3.8,4.28-5.7,7.13-1.9,2.85-3.8,6.18-5.7,9.98l-11.4,2.85c-1.9,0-2.85-.95-2.85-2.85,1.9-1.9,3.8-4.28,5.7-7.13,1.9-2.85,3.8-5.22,5.7-7.13l2.85-2.85v-5.7c0-1.9-1.9-8.55-5.7-19.95l-11.4,8.55c-3.8,0-5.7,1.9-5.7,5.7-1.9,1.9-4.75,2.38-8.55,1.43-3.8-.95-5.7-2.37-5.7-4.28l2.85-8.55c-1.9,1.9-4.75.95-8.55-2.85,0-3.8-1.9-5.7-5.7-5.7-5.7-5.7-11.4-6.65-17.1-2.85-7.6,3.8-13.3,8.55-17.1,14.25-5.7,1.9-8.55.95-8.55-2.85v-5.7c0-1.9-.47-2.85-1.43-2.85h-1.43c-3.8,3.8-5.7,6.66-5.7,8.55l-5.7,8.55c0,1.9-1.9,2.85-5.7,2.85-1.9,0-2.37-.47-1.43-1.42.95-.95.48-2.37-1.42-4.28,0-3.8.95-6.65,2.85-8.55,1.9-1.9,2.85-4.75,2.85-8.55l2.85-8.55h-8.55c0-1.9-.47-2.85-1.43-2.85s-1.42.95-1.42,2.85c-1.9,1.9-2.85,3.8-2.85,5.7s-.95,2.85-2.85,2.85l-8.55,17.1c-3.8,11.4-5.7,19-5.7,22.8-1.9,9.51-2.85,24.7-2.85,45.6-1.9,3.8-2.37,7.6-1.42,11.4.95,3.8.48,7.6-1.43,11.4l-2.85,2.85c1.9,1.9,2.38,4.28,1.43,7.13-.95,2.85-1.43,4.28-1.43,4.28v11.4c0,13.3.95,23.75,2.85,31.35v2.85c0,1.9,1.9,6.65,5.7,14.25,1.9,1.9,4.75,2.85,8.55,2.85,9.51,0,16.15,2.85,19.95,8.55,3.8,9.5,9.51,15.2,17.1,17.1,1.9,0,4.28.48,7.13,1.42,2.85.95,6.18,3.33,9.98,7.13,0,1.9.95,2.85,2.85,2.85,9.5,0,17.1-1.9,22.8-5.7,5.7-3.8,8.55-1.9,8.55,5.7-1.9,5.7-1.9,9.51,0,11.4,3.8,1.9,3.8,4.75,0,8.55-7.6,3.8-10.45,8.55-8.55,14.25v5.7l-2.85,8.55v1.43c0,.95.95,1.42,2.85,1.42h2.85l2.85-5.7c0-3.8.95-6.65,2.85-8.55v-1.42c0-.95.95-1.43,2.85-1.43v5.7l2.85,5.7h1.42c.95,0,1.43.95,1.43,2.85h5.7v-8.55c5.7-5.7,6.65-9.5,2.85-11.4l2.85-14.25s3.8-3.8,11.4-11.4v11.4c3.8-1.9,6.65-2.85,8.55-2.85s4.75.95,8.55,2.85h5.7l-2.85,2.85c-1.9,0-4.75,1.9-8.55,5.7l5.7,8.55c0,1.9.95,2.85,2.85,2.85l5.7-5.7c3.8-3.8,5.7-2.85,5.7,2.85,0,3.8-.95,6.65-2.85,8.55l-2.85,5.7c-1.9,1.9-3.8,1.9-5.7,0h-2.85v5.7h2.85c1.9,0,3.32-.48,4.28-1.42.95-.95,2.37-.48,4.28,1.42v5.7c3.8,3.8,4.75,8.55,2.85,14.25l11.4-5.7c1.9,5.7-.95,10.45-8.55,14.25l5.7,2.85c1.9,1.9,1.9,3.8,0,5.7-3.8,3.8-3.8,5.7,0,5.7,0,1.9,1.9,2.85,5.7,2.85,3.8-1.9,5.7-4.75,5.7-8.55-1.9,0-2.85-1.9-2.85-5.7l5.7-2.85c3.8,0,5.7-1.9,5.7-5.7l8.55-5.7h14.24c1.9,0,3.81.95,5.7,2.85,1.9,1.9,1.9,4.75,0,8.55-1.9,1.9-1.9,4.75,0,8.55,1.9,1.9,2.38,4.28,1.42,7.13-.95,2.85-.47,5.22,1.43,7.13v5.7c0,3.8-.95,6.65-2.85,8.55h2.85c3.8,3.8,5.7,3.8,5.7,0l8.55-14.25c-5.7,0-9.5-1.9-11.4-5.7,3.8,0,6.18-.95,7.13-2.85.95-1.9,2.38-2.85,4.28-2.85,0,0,.48-.48,1.43-1.43.95-.95,1.42-.48,1.42,1.43,1.9,0,2.85.48,2.85,1.43s-.95,1.42-2.85,1.42l-2.85,5.7c5.7,0,8.55.95,8.55,2.85,0,3.8-1.9,5.7-5.7,5.7-1.9,1.9-1.9,3.8,0,5.7,0,3.8-1.9,5.7-5.7,5.7l-5.7,2.85c1.9,1.9,3.33,2.37,4.28,1.42.95-.95,2.38-1.42,4.28-1.42s2.85,1.9,2.85,5.7v5.7h5.7v2.85c-9.5,3.8-14.25,8.55-14.25,14.25-1.9,1.9-3.8,1.9-5.7,0,0-3.8-1.9-3.8-5.7,0-3.8,3.8-7.6,1.9-11.4-5.7-3.8,0-3.8,1.9,0,5.7,0,0,.48.47,1.43,1.43.95.95.48,2.37-1.43,4.28v11.4l5.7-2.85v-2.85c0-3.8,1.9-5.7,5.7-5.7,1.9,0,2.85,1.9,2.85,5.7l-5.7,8.55c-1.9,1.9-2.85,4.75-2.85,8.55,7.6,3.8,12.36,4.75,14.25,2.85-1.9-3.8-2.85-5.7-2.85-5.7l11.4-8.55h5.7c-1.9,3.8-1.9,6.65,0,8.55,1.9,0,2.85.95,2.85,2.85s-.95,3.32-2.85,4.28c-1.9.95-2.85,2.37-2.85,4.28h-2.85l-5.7,2.85-5.7,2.84c-3.8,0-5.7-.95-5.7-2.84s-1.9-2.85-5.7-2.85h-2.85c-1.9-1.9-3.32-2.38-4.28-1.43-.95.95-1.43,2.37-1.43,4.28l-2.85,8.54c0,3.8-.95,5.7-2.84,5.7-3.8,3.8-5.7,8.55-5.7,14.25-1.9,3.8-4.75,4.75-8.55,2.85-1.9,0-2.85.95-2.85,2.85,0,3.8-1.9,5.7-5.7,5.7-3.8-3.8-2.85-7.6,2.85-11.4h1.43c.95,0,1.43-.95,1.43-2.85-5.7,0-9.51,1.9-11.4,5.7-3.8,3.8-7.6,4.75-11.4,2.85h-11.4s-.48.48-1.43,1.42c-.95.95-.48,1.43,1.43,1.43v-1.43c0-.95.95-.47,2.85,1.43h14.25v5.7c-5.7,0-8.55,1.9-8.55,5.7l-2.85,2.85v8.55c7.6-1.9,12.35-1.9,14.25,0-3.8,0-5.7.95-5.7,2.85s1.9,2.85,5.7,2.85v2.85c-1.9,1.9-3.33,2.38-4.28,1.43-.95-.95-1.43-1.43-1.43-1.43h-5.7l2.85,8.55c1.9,0,2.85-.48,2.85-1.42v-1.43c1.9,0,2.85.48,2.85,1.43v1.42l-5.7,2.85c-3.8,0-3.8,1.9,0,5.7,1.9,0,2.85.48,2.85,1.43s-.95,1.42-2.85,1.42l-2.85,2.85c-1.9,0-3.33.48-4.28,1.42-.95.95-.48,2.37,1.43,4.28,1.9,1.9,1.9,3.8,0,5.7-1.9,0-2.38.48-1.43,1.43.95.95,1.43,1.43,1.43,1.43,1.9,0,2.85.48,2.85,1.43v1.43c0,3.8,2.85,8.55,8.55,14.25,0,3.8,2.85,5.7,8.55,5.7,3.8-3.8,5.7-3.8,5.7,0s2.85,5.7,8.55,5.7c3.8,0,5.7-1.9,5.7-5.7,1.9-1.9,4.75-2.85,8.54-2.85,0,3.8-1.9,7.6-5.69,11.4v2.85l2.85,5.7h2.84c3.8,0,5.7,1.9,5.7,5.7v2.85l5.7-2.85h2.85s1.9,1.9,5.7,5.7c1.9,1.9,2.38,2.85,1.43,2.85h-1.43c-3.8,0-5.7,1.9-5.7,5.7l2.85,2.85c3.8-3.8,5.7-5.7,5.7-5.7,3.8,0,6.66-.95,8.55-2.85l-2.85,11.4c1.9,0,2.85,1.9,2.85,5.7s1.9,3.8,5.7,0h2.85c1.9-1.9,3.8-2.85,5.7-2.85s3.8-1.9,5.7-5.7h2.85l5.7,2.85c5.7,0,6.65,2.85,2.85,8.55,0,0,1.9-1.9,5.7-5.7,0,0,.48-.48,1.43-1.43.95-.95,2.38-.48,4.28,1.43h2.85c0,1.9-.95,2.85-2.85,2.85s-2.85,1.9-2.85,5.7c3.8-3.81,6.65-3.81,8.55,0h5.7v-2.85c-1.9-1.9-2.37-3.33-1.43-4.28.95-.95,1.43-1.43,1.43-1.43,1.9-3.8,2.37-7.6,1.42-11.4-.95-3.8-3.33-6.66-7.13-8.55,3.8-3.8,4.75-6.65,2.85-8.55l2.85-2.85,5.7,2.85,2.85,2.85v-1.43c0-.95.95-.48,2.85,1.43l2.85,5.7c1.9,3.8,3.8,3.8,5.7,0h2.85c3.8-3.8,6.65-5.7,8.55-5.7,3.8,1.9,6.65,1.9,8.55,0,1.9,0,2.85-.95,2.85-2.85v-1.42c0-.95.95-1.43,2.85-1.43,5.7,5.7,8.55,8.55,8.55,8.55h-9.98c-.95,0-1.42.95-1.42,2.85s.48,2.85,1.42,2.85h7.13c1.9,5.7,4.75,6.65,8.55,2.85,3.8,3.8,3.8,5.7,0,5.7l-2.85,5.7h5.7c0,1.9-1.9,2.85-5.7,2.85,0,0-.48.47-1.43,1.43-.95.95-.48,1.42,1.43,1.42,1.9,1.9,3.8,1.9,5.7,0,1.9-1.9,4.75-2.85,8.55-2.85,3.8,1.9,9.5.95,17.1-2.85,0,0,.47-.48,1.42-1.43.95-.95,2.37-.48,4.28,1.43h1.43c.95,0,.47.95-1.43,2.85,0,0,.95,1.9,2.85,5.7l8.55,2.85c1.9,0,1.9-.95,0-2.85v-1.43c0-.95.95-1.43,2.85-1.43s2.85.95,2.85,2.85v1.42c0,.95.95,1.43,2.85,1.43,3.8-5.7,7.6-8.55,11.4-8.55l-5.7-5.7v-2.85h5.7c1.9,3.8,5.7,4.75,11.39,2.85,3.81,0,6.66.95,8.55,2.85l-11.4,5.7c1.9,1.9,2.85,3.8,2.85,5.7s-.95,3.8-2.85,5.7c3.8,0,6.66-.95,8.55-2.85,1.9-1.9,5.7-2.85,11.4-2.85h11.4c-7.6,1.9-11.4,5.7-11.4,11.4l19.95-5.7,5.7-2.85c1.9-1.9,5.7-2.85,11.4-2.85h5.7l2.85-8.55,8.55-8.55c0-1.9.95-2.85,2.85-2.85s3.8-.95,5.7-2.85l-8.55-2.85c-1.9,0-2.85-.48-2.85-1.42v-1.43c1.9,0,2.37-.95,1.42-2.85-.95-1.9-.47-2.85,1.43-2.85l5.7-2.85c3.8-3.8,6.65-4.75,8.55-2.85l5.7,2.85c0,1.9-.95,3.8-2.85,5.7-1.9,1.9-2.85,2.85-2.85,2.85l2.85,2.85c3.8-3.8,4.75-5.7,2.85-5.7,0-1.9.48-3.33,1.43-4.28s2.37-.48,4.28,1.43h5.7l8.55-8.55c1.9-1.9,2.37-3.33,1.43-4.28-.95-.95-.48-1.43,1.43-1.43s2.37.48,1.43,1.43c-.95.95-.48,2.37,1.42,4.28,1.9,0,2.85-.95,2.85-2.85s1.9-2.85,5.7-2.85,5.7,1.9,5.7,5.7c0,1.9-.95,3.8-2.85,5.7-1.9,1.9-3.8,2.85-5.7,2.85v-2.85l-5.7,2.85c-1.9,3.8-4.75,5.7-8.55,5.7-1.9,0-2.85,1.9-2.85,5.7,0,9.5-2.85,16.15-8.55,19.95v5.7c1.9,0,2.85.95,2.85,2.85-3.8,1.9-7.13,2.37-9.98,1.43-2.85-.95-6.18-.48-9.98,1.42,1.9,1.9,3.33,2.37,4.28,1.43.95-.95,2.37-1.43,4.28-1.43,0,0,.48.47,1.43,1.43.95.95.48,1.43-1.43,1.43l-2.85,5.7c0,1.9-1.43,4.28-4.28,7.13-2.85,2.85-3.33,5.22-1.42,7.13v2.85s-3.8,3.8-11.4,11.39c-1.9,1.9-2.37,3.33-1.43,4.28.95.95.48,1.43-1.43,1.43,0,1.9,1.9,2.85,5.7,2.85h1.42c.95,0,1.43.95,1.43,2.85l5.7,2.85,5.7-2.85,5.7-2.85c9.5-9.5,14.25-14.25,14.25-14.25,0,0,1.9-1.9,5.7-5.69,0-5.7,2.85-9.51,8.55-11.4l2.85-5.7,2.85-5.7c5.7,0,8.55-.95,8.55-2.85l11.4-11.4c3.8-3.8,6.65-4.75,8.55-2.85,0-3.8,1.9-6.66,5.7-8.55,3.8,0,5.7-1.9,5.7-5.7,0-1.9-.95-2.38-2.85-1.43-1.9.95-2.85.47-2.85-1.43v-5.7l2.85-2.85,5.7,5.7c1.9,1.9,1.9,5.7,0,11.4l-8.55,5.7c1.9,0,6.65-1.9,14.25-5.7,3.8,0,4.75-1.9,2.85-5.7,3.8-7.6,8.55-11.4,14.25-11.4,3.8,0,6.65-.95,8.55-2.85l-2.85-5.7,5.7,2.85c0,1.9,1.43,2.85,4.28,2.85s3.32.95,1.43,2.85c1.9,1.9,4.75,2.37,8.54,1.42,3.8-.95,5.7-1.42,5.7-1.42l11.4-11.4c1.9-1.9,3.8-3.8,5.7-5.7,1.9-1.9,2.85-3.8,2.85-5.7l5.7-5.7c3.8-3.8,3.8-6.65,0-8.55,0-1.9.95-2.85,2.85-2.85l5.7-8.55c3.8,0,5.7-1.9,5.7-5.7-1.9-1.9-2.37-3.8-1.43-5.7.95-1.9,2.38-2.85,4.28-2.85l5.7-8.55,11.4-14.25c3.8-7.6,5.7-12.35,5.7-14.25v-2.85c1.9-1.9,1.9-3.8,0-5.7-1.9-1.9-1.9-3.8,0-5.7l11.4-5.7c-5.7-3.8-7.6-6.65-5.7-8.55,1.9-1.9,2.37-3.32,1.43-4.28-.95-.95-1.43-2.37-1.43-4.28v-2.85c-1.9-1.9-2.37-3.8-1.43-5.7.95-1.9,1.43-2.85,1.43-2.85-1.9-1.9-3.33-2.37-4.28-1.42-.95.95-1.43,1.42-1.43,1.42v-11.39c1.9-1.9,2.37-3.33,1.43-4.28-.95-.95-2.37-1.42-4.28-1.42-3.8,0-5.7.95-5.7,2.85s-.95,2.85-2.85,2.85c0,0-.47-.48-1.43-1.43-.95-.95-2.37-.48-4.28,1.43,0,1.9-2.85,1.9-8.55,0,0,0-.47.47-1.43,1.43-.95.95-.47,2.37,1.43,4.28,0,1.9-.95,2.85-2.85,2.85,0,1.9-1.42,4.27-4.28,7.12-2.85,2.85-2.37,6.18,1.43,9.98-5.7-3.8-8.55-2.85-8.55,2.85l-2.85,2.85c-3.8,0-5.7-1.42-5.7-4.28v-4.28l5.7-22.8,2.85-17.1c0-3.8.48-8.08,1.43-12.83.95-4.75.48-10.93-1.43-18.53v-8.55c0-5.7-1.9-8.55-5.7-8.55-5.7-3.8-11.4-3.8-17.1,0-5.7,0-8.55-1.9-8.55-5.7v-5.7l-2.84-2.85c-3.8,0-5.7-1.9-5.7-5.7v-5.7c0-3.8-1.9-6.65-5.7-8.55-3.8,1.9-5.7.95-5.7-2.85,0-7.6-3.81-12.35-11.4-14.25l-14.25-2.85-8.55-2.85c-1.9-1.9-2.38-3.33-1.43-4.28.95-.95,1.43-2.37,1.43-4.28,0-3.8-1.43-6.65-4.28-8.55-2.85-1.9-5.23-2.85-7.13-2.85-1.9,1.9-4.75.95-8.55-2.85v-5.7c-1.9-3.8-4.75-5.7-8.55-5.7h-5.7c-1.9,1.9-4.75.95-8.55-2.85l-11.4-5.7h-1.43c-.95,0-1.42-.95-1.42-2.85-1.9-1.9-4.28-4.28-7.13-7.13-2.85-2.85-3.33-6.17-1.43-9.98,1.9-5.7,1.9-9.5,0-11.4,0-1.9-.48-3.32-1.43-4.28-.95-.95-1.42-.47-1.42,1.42-1.9,1.9-4.75,1.9-8.55,0l-5.7,2.85-17.1,8.55h-2.85c0,1.9-1.9,4.75-5.7,8.55,0,1.9-.47,2.85-1.43,2.85h-1.43c-3.8-1.9-7.6-.95-11.4,2.85-1.9,0-3.32.95-4.28,2.85-.95,1.9-2.37,2.85-4.28,2.85s-4.75,1.9-8.55,5.7l-14.25,8.55-2.85,2.85c0-3.8-.95-5.7-2.85-5.7l-2.85-2.85c-3.8,0-4.75-.95-2.85-2.85,3.8-3.8,5.7-6.65,5.7-8.55l5.7-2.85c7.6-3.8,11.4-8.55,11.4-14.25v-2.85l17.1-8.55,8.55-5.7,2.85-5.69c3.8-3.8,4.75-5.7,2.85-5.7l11.4-5.7c5.7,0,9.5-1.9,11.4-5.7,0,0,1.9-1.9,5.7-5.7h2.85c1.9,1.9,3.33,2.37,4.28,1.43.95-.95,1.43-1.43,1.43-1.43l5.7-2.85c5.7,0,9.5-.95,11.4-2.85l8.55-2.85c5.7-1.9,11.4-5.7,17.1-11.4,1.9,0,2.85-1.9,2.85-5.7,0-1.9,1.9-2.85,5.7-2.85l5.7,2.85c1.9,0,2.85.95,2.85,2.85s-1.9,2.85-5.7,2.85c0-1.9-1.9-.95-5.7,2.85l-5.7,8.55c0,3.8-.95,5.7-2.85,5.7-1.9,1.9-3.33,4.28-4.28,7.13-.95,2.85-3.33,5.22-7.13,7.13l-2.85,11.4,5.7,2.84c1.9,1.9,4.75,2.38,8.55,1.43,3.8-.95,6.65-.47,8.55,1.43h5.7l5.7-2.85c1.9-1.9,2.85-1.9,2.85,0v2.85h5.7c3.8-1.9,9.5-2.85,17.1-2.85,5.7,5.7,8.55,8.55,8.55,8.55,0,1.9,2.85,4.75,8.55,8.55l5.7,2.85c0,5.7,3.8,8.55,11.4,8.55,3.8-3.8,6.65-3.8,8.54,0,0,1.9.95,3.33,2.85,4.28,1.9.95,3.8,2.38,5.7,4.28h1.42c.95,0,1.43.95,1.43,2.85l11.4,8.55c3.81-3.8,9.51-5.7,17.1-5.7,1.9,1.9,4.28,1.9,7.13,0,2.85-1.9,4.28-4.75,4.28-8.55,3.81-7.6,8.55-10.45,14.25-8.55l-5.7,2.85v2.85c1.9,1.9,2.85,5.7,2.85,11.4,1.9,1.9,2.85,4.75,2.85,8.55-3.8,0-3.8,1.9,0,5.7,3.8,3.8,4.75,6.65,2.85,8.55l-2.85,5.7c0,9.5.95,16.15,2.85,19.95,0,0,.48.48,1.43,1.42.95.95.48,2.37-1.43,4.28-1.9,1.9-1.9,4.75,0,8.55v5.7c-1.9,1.9-.95,6.65,2.85,14.25-5.7,1.9-6.65,4.75-2.85,8.55,1.9,1.9,1.9,2.85,0,2.85l-2.85,2.85c1.9,1.9,2.85,5.7,2.85,11.4,3.8,1.9,5.7,5.7,5.7,11.4v8.55l2.85,5.7c1.9-1.9,3.8-2.85,5.7-2.85s3.8-.95,5.7-2.85h2.85c1.9-1.9,5.7-2.85,11.4-2.85l11.4-5.7c1.9-1.9,3.8-3.81,5.7-5.7,1.9-1.9,3.8-2.85,5.7-2.85,1.9-1.9,3.8-2.85,5.7-2.85s3.8-1.9,5.7-5.7v-5.7c1.9-1.9,3.33-3.33,4.28-4.28.95-.95,2.37-2.37,4.28-4.28v-5.7h8.55c1.9,1.9,2.85,1.9,2.85,0,1.9-1.9,2.37-3.33,1.43-4.28-.95-.95-.48-2.37,1.43-4.28h-11.4l5.7-2.85c3.8,0,6.65-.95,8.55-2.85,3.8-1.9,5.7-5.7,5.7-11.4s-.95-9.5-2.85-11.4c-1.9-1.9-2.85-4.75-2.85-8.55l2.85-5.7c3.8-3.8,3.8-6.65,0-8.55l8.55-2.85c5.7-5.7,8.55-9.5,8.55-11.4l2.85-5.7c1.9-1.9,2.85-4.75,2.85-8.55l-2.85-5.7c-1.9,0-2.85-.47-2.85-1.42s.95-1.43,2.85-1.43c3.8-1.9,5.7-3.8,5.7-5.7l-2.85-2.85c-5.7,3.8-9.51,6.65-11.4,8.55h-2.85c-1.9,0-4.28.48-7.13,1.43-2.85.95-6.18.48-9.98-1.43l8.55-2.85c7.6-1.9,9.5-6.65,5.7-14.25l-2.85-5.7v-5.7l-8.55-5.69c-9.51-7.6-25.65-17.1-48.46-28.5-3.8-3.8-5.7-5.7-5.7-5.7-1.9-3.8-4.75-4.75-8.55-2.85h-14.25l-17.1-2.85-2.85-2.85c-1.9-1.9-2.37-2.85-1.43-2.85h7.13l25.65-2.85c5.7,0,9.5-1.9,11.4-5.7-3.8,1.9-7.6,2.85-11.4,2.85s-6.65.95-8.55,2.85h-19.95c-3.8-3.8-5.7-6.66-5.7-8.55,3.8-3.8,3.8-6.66,0-8.55,0-1.9-.47-3.33-1.43-4.28-.95-.95-.47-2.37,1.43-4.28,1.9-3.8,2.85-8.55,2.85-14.25-3.8-3.8-3.8-7.6,0-11.4,1.9-5.7.95-10.45-2.85-14.25l11.4-2.85v-5.7c-3.8-1.9-5.7-4.75-5.7-8.55l2.85-2.85,11.4-5.7c5.7-3.8,8.55-1.9,8.55,5.7V1.31l2.85-2.85c3.8,0,5.7.95,5.7,2.85,0,5.7,1.9,8.55,5.7,8.55l2.85,2.85c3.8,1.9,6.65,1.9,8.55,0,0-1.9.95-1.9,2.85,0,1.9,1.9,3.8,2.37,5.7,1.42s3.8-1.42,5.7-1.42h5.7c3.8,1.9,7.13,2.37,9.98,1.42,2.85-.95,5.22-1.42,7.13-1.42-1.9-1.9-3.81-2.85-5.7-2.85s-3.8-.95-5.7-2.85c1.9-1.9,3.8-2.85,5.7-2.85s2.85-.95,2.85-2.85c3.8-3.8,7.6-4.75,11.4-2.85h8.55c0,1.9-1.9,2.85-5.7,2.85,1.9,1.9,4.28,2.37,7.13,1.43,2.85-.95,4.28-1.43,4.28-1.43,0-1.9,1.9-2.85,5.7-2.85,1.9,1.9,1.9,3.8,0,5.7,1.9,0,2.85.95,2.85,2.85-1.9,1.9-2.38,2.85-1.43,2.85h1.43l11.4-5.7c5.7-1.9,12.35-2.85,19.95-2.85h5.69c-3.8-3.8-5.69-6.65-5.69-8.55-1.9,0-2.85-.48-2.85-1.43v-1.43c3.8-3.8,3.8-5.7,0-5.7l-14.25-14.25c-1.9,0-5.7-2.85-11.4-8.55l-2.85-2.85c1.9-1.9.95-2.85-2.85-2.85-1.9,0-2.85-.95-2.85-2.85-1.9-1.9-2.85-4.75-2.85-8.55-1.9,0-2.85-.95-2.85-2.85s-.95-2.85-2.85-2.85c-3.8-3.8-5.7-6.65-5.7-8.55l-2.85-2.85-8.55-5.7-2.85-5.69c0-3.81-3.8-8.55-11.4-14.25h-5.7c-3.8,0-5.7-1.9-5.7-5.7,0-1.9.48-2.38,1.42-1.43.95.95,1.43,1.43,1.43,1.43-3.8-5.7-6.65-9.51-8.55-11.4l-2.85-2.85s-.48-.48-1.43-1.43c-.95-.95-.48-1.43,1.43-1.43,1.9-1.9,2.85-3.8,2.85-5.7s.95-2.85,2.85-2.85c0,0-.48-.48-1.42-1.42-.95-.95-.48-1.43,1.42-1.43s6.65-1.9,14.25-5.7c1.9,0,1.9-.95,0-2.85,3.8-3.8,4.75-5.7,2.85-5.7,0-7.6-1.9-12.35-5.7-14.25l-2.85-2.85-2.85-5.7h1.42c.95,0,1.43-.95,1.43-2.85,3.8,0,5.7.95,5.7,2.85l19.95,17.1,2.85,2.85c3.8-1.9,7.6-.95,11.4,2.85,0-3.8-.95-5.7-2.85-5.7l-8.55-8.55-2.85-5.7h2.85l5.7,2.85-2.85-5.7c1.9-1.9,3.8-1.9,5.7,0,1.9,1.9,3.8,2.85,5.7,2.85,5.7,0,8.55,1.9,8.55,5.7,3.8,3.8,5.7,6.65,5.7,8.55l11.4,11.4c0,1.9,1.9,2.85,5.7,2.85h2.85c0,3.8,1.9,7.6,5.7,11.4l11.39,5.7,8.55,8.55c0,1.9.95,2.85,2.85,2.85s2.38-.48,1.43-1.43c-.95-.95-1.43-1.42-1.43-1.42-1.9-1.9-1.43-3.81,1.43-5.7,2.85-1.9,4.28-3.81,4.28-5.7h5.7c5.7,3.8,7.6,6.65,5.7,8.55,1.9,1.9,3.33,2.37,4.28,1.43.95-.95,2.38-.48,4.28,1.43,0,0-.47-.48-1.42-1.43-.95-.95-1.43-.48-1.43,1.43,7.6,0,11.4,3.8,11.4,11.4l8.55,11.4c1.9,0,2.85.95,2.85,2.85v1.43c0,.95.95,1.43,2.85,1.43l5.7,2.85,2.85,2.84c1.9,1.9,3.8,1.9,5.7,0l-2.85-2.84c-1.9-1.9-2.85-4.75-2.85-8.55l5.7-2.85,5.7,2.85,11.4,14.24c0,1.9.95,4.75,2.85,8.55,1.9,3.8,4.75,6.66,8.55,8.55v2.85c0,1.9.48,2.38,1.43,1.43.95-.95,1.43-.47,1.43,1.42,1.9,0,3.33.48,4.28,1.43.95.95,2.37.48,4.28-1.43,0-1.9.48-2.85,1.43-2.85s1.42.95,1.42,2.85c9.5,3.81,12.35,8.55,8.55,14.25,0,5.7.95,8.55,2.85,8.55h2.85c0-1.9.95-3.8,2.85-5.7,1.9-1.9,1.9-3.8,0-5.7,0-1.9,1.9-2.85,5.7-2.85l8.55,2.85c1.9,0,2.85,1.9,2.85,5.7s1.9,5.7,5.7,5.7v-5.7c3.8-3.8,5.7-5.7,5.7-5.7l-5.7-2.85h-2.85l-2.85-2.85h2.85l2.85-5.7-5.7-5.7c-1.9-1.9-3.8-4.28-5.7-7.13-1.9-2.85-3.8-6.17-5.7-9.98-1.9-3.8-6.65-9.5-14.25-17.1l-2.85-2.85-5.7-11.4c-3.8-7.6-4.75-13.3-2.85-17.1,3.8,1.9,7.6,6.65,11.4,14.25l5.7,11.4v2.85c9.5,7.6,14.25,13.3,14.25,17.1l5.7,11.4c5.7,1.9,8.55,4.75,8.55,8.55l5.7,5.7,8.55,17.1c0,5.7-2.85,11.4-8.55,17.1-1.9,0-2.85-.95-2.85-2.85s-.95-2.85-2.85-2.85c-1.9,5.7-.95,8.55,2.85,8.55l-5.7,2.85c-1.9,0-4.75,2.85-8.55,8.55,0,7.6-.95,13.3-2.85,17.1-3.8,3.8-7.6,9.5-11.4,17.1-1.9,1.9-2.85,5.7-2.85,11.4-3.8,3.8-6.65,5.7-8.55,5.7s-4.75,2.85-8.55,8.55c0,1.9-1.9,2.85-5.7,2.85-5.7,0-9.5.95-11.4,2.85l5.7,8.55c0,11.4-1.9,19-5.7,22.8-7.6,3.8-10.45,9.5-8.55,17.1l-2.85,19.95-5.7,8.54c0,1.9-.95,2.85-2.85,2.85s-3.8-.95-5.7-2.85c0-1.9-.95-2.84-2.85-2.84s-2.85.47-2.85,1.42v7.12c0,5.7-2.85,8.55-8.55,8.55-5.7,1.9-8.55,4.75-8.55,8.55-3.8,5.7-5.7,10.93-5.7,15.68s-.95,9.03-2.85,12.83l-5.7,11.4v2.85c0,1.9-4.75,7.6-14.25,17.1-5.7,1.9-9.5,5.7-11.4,11.4l-8.55,14.25-2.85,2.85c-5.69,3.8-10.45,8.55-14.24,14.25,0,1.9-1.9,4.75-5.7,8.55h-2.85l-11.4,19.95-11.4,22.8-2.85,5.7c-5.7,0-8.55,2.85-8.55,8.55l-5.7,8.55c-3.8,3.8-5.7,6.65-5.7,8.55,0,3.8-.95,5.7-2.85,5.7-5.7,3.8-10.45,8.54-14.25,14.24l-5.7,2.85c-3.8,0-5.7,2.85-5.7,8.55,0,3.81-.95,6.66-2.85,8.55-3.8,3.8-5.7,8.55-5.7,14.25-1.9,1.9-2.85,3.8-2.85,5.7s-1.9,3.8-5.7,5.7l-2.85,5.7-17.1,34.2c-5.7,9.5-9.5,16.15-11.4,19.95l-2.85,5.7-2.85,5.7-5.7,11.4-17.1,25.65c-5.7,5.7-12.35,14.25-19.95,25.65l-8.55,8.55-8.55,11.4-5.7,5.7-5.7,8.54v2.85c-3.8,1.9-7.6,5.23-11.39,9.98-3.81,4.75-7.6,8.08-11.4,9.98l-28.5,57.01-11.4,22.8-2.85,5.7c0,1.9-1.9,4.75-5.7,8.55-1.9,1.9-2.85,4.75-2.85,8.55-1.9,5.7-6.65,12.35-14.25,19.95l-17.1,19.95c-5.7,7.6-13.3,12.35-22.8,14.25l-8.55,5.7c-3.8,3.8-4.75,6.65-2.85,8.55,0,1.9.48,5.22,1.43,9.98.95,4.75,3.33,9.98,7.13,15.67,1.9,1.9,3.8,4.28,5.7,7.13,1.9,2.85,3.8,5.23,5.7,7.13,0,1.9,2.85,8.55,8.55,19.95l14.25,37.05c3.8,11.4,11.4,17.1,22.8,17.1l2.85,2.85c1.9,1.9,5.7,3.8,11.4,5.7,5.7,1.9,9.5,2.85,11.4,2.85l8.55,2.85c5.7,5.7,9.5,7.6,11.4,5.7,3.8,3.8,7.6,5.7,11.4,5.7,11.4,3.8,18.05,7.6,19.95,11.4l8.55,2.85,19.95,8.55,8.55,2.85,11.4,5.7,2.85,2.85c9.51,0,15.21,2.85,17.1,8.55,7.6,3.8,12.35,5.7,14.25,5.7l8.55,5.7c3.8,3.8,6.65,5.7,8.55,5.7,3.8,0,7.6,1.9,11.4,5.7,0,1.9.48,2.37,1.42,1.43.95-.95,1.43-.48,1.43,1.43,7.6,3.8,13.3,5.7,17.1,5.7,1.9,1.9,4.28,3.32,7.13,4.28,2.85.95,5.22,3.32,7.13,7.13l11.4,5.7c5.7,0,9.5,1.9,11.4,5.7,0,1.9,1.9,2.85,5.7,2.85s7.6,1.9,11.4,5.69c3.8,3.81,6.65,5.7,8.55,5.7l19.95,8.55c1.9,3.8,3.8,5.7,5.69,5.7s3.8.95,5.7,2.85l14.25,8.55c5.7,5.7,12.36,9.51,19.95,11.4l2.85,2.85s2.85,2.85,8.55,8.55h2.85c3.8,3.8,7.13,6.18,9.98,7.13,2.85.95,5.23,1.43,7.13,1.43h5.7c1.9-11.4,1.9-21.85,0-31.35l-8.55-28.5-5.7-19.95-8.55-25.65v-2.85l-8.55-42.75v-5.7c-1.9-5.7-2.85-15.2-2.85-28.5l-2.85-37.05c-1.9-3.8-2.85-9.5-2.85-17.1v-2.85c-3.8-3.8-5.7-9.5-5.7-17.1,0-9.5-1.9-15.2-5.7-17.1,0-7.6-5.7-13.3-17.1-17.1l-14.24-5.7h-8.55c-3.81,0-5.7-1.9-5.7-5.7,0-1.9-1.9-2.85-5.7-2.85-5.7-1.9-9.51-5.7-11.4-11.4l-2.85-2.85c-3.81-1.9-6.66-4.28-8.55-7.13-1.9-2.85-3.81-5.23-5.7-7.13-5.7-7.6-10.45-19-14.25-34.2l-8.55-17.1-2.85-8.55-2.85-5.7c0-3.8-.95-8.07-2.85-12.83-1.9-4.75-2.85-9.03-2.85-12.83l-2.85-28.5c-1.9-7.6-.95-15.2,2.85-22.8,5.7-9.5,13.3-18.05,22.8-25.65,3.8-3.8,7.6-6.65,11.4-8.54,3.8-1.9,7.6-3.8,11.4-5.7,3.8-1.9,11.4-2.85,22.8-2.85h22.8l5.7,2.85,5.7,2.85c9.51,5.7,15.21,9.5,17.1,11.39l14.25,17.1c0,3.8.95,6.66,2.85,8.55,1.9,0,2.85.48,2.85,1.43v1.42c3.8,7.6,5.7,13.3,5.7,17.1v2.85c3.8,3.8,7.6,11.4,11.4,22.8l2.85,5.7v5.7c3.8,11.4,7.6,26.6,11.4,45.6,0,1.9-.48,3.8-1.43,5.7-.95,1.9-.48,4.75,1.43,8.55,1.9,1.9,2.37,3.32,1.42,4.28-.95.95-1.42,2.37-1.42,4.28-1.9,1.9-2.85,5.7-2.85,11.4,0,1.9-1.9,4.75-5.7,8.55l-8.55,14.25c0,1.9-1.9,4.75-5.7,8.55-3.8,0-4.75,2.85-2.85,8.55,0,1.9.95,4.28,2.85,7.13,1.9,2.85,2.85,5.22,2.85,7.13,3.81,7.6,5.7,13.3,5.7,17.1v2.85c1.9,3.8,3.33,8.55,4.28,14.25.95,5.7,2.37,10.45,4.28,14.25v14.25c0,19,.95,32.3,2.85,39.9,1.9,5.7,2.85,12.35,2.85,19.95v5.7c-3.8,9.5-.95,17.1,8.55,22.8,9.5,5.7,14.25,15.2,14.25,28.5l2.85,11.4c3.8,3.8,3.8,7.6,0,11.4v12.83c0,4.75.95,9.02,2.85,12.82,3.8,7.6,4.75,13.3,2.85,17.1v5.7c0,1.9.48,4.28,1.42,7.13.95,2.85,3.33,6.18,7.13,9.98v5.7c-1.9,3.8-.95,9.51,2.85,17.1,1.9,0,2.85.95,2.85,2.85,0,5.7,1.9,12.35,5.7,19.95,0,3.8,1.9,5.7,5.7,5.7,1.9,1.9,5.7,2.85,11.4,2.85l8.55,8.55c1.9,1.9,4.75,4.28,8.55,7.13,3.8,2.85,6.65,6.18,8.55,9.98l2.85,2.85c3.8,0,5.7,1.9,5.7,5.7s.95,7.13,2.85,9.98c1.9,2.85,3.8,5.22,5.7,7.13,5.7,7.6,12.35,20.9,19.95,39.9l5.69,25.65c3.8,11.39,7.6,28.5,11.4,51.3l5.7,25.65v31.35c-1.9,7.6.95,15.2,8.55,22.8l5.7,8.55,11.4,14.25,2.85,2.85c0,1.9,1.9,8.55,5.7,19.95l5.7,11.4,5.7,17.1,2.85,22.8v1.43c0,.95.95,1.42,2.85,1.42l14.25,14.25c3.8,3.81,5.7,7.6,5.7,11.4l2.85,5.7,5.7,8.55c7.6,7.6,11.4,15.21,11.4,22.8l5.7,22.8c1.9,1.9,2.85,5.7,2.85,11.4,0,1.9-1.9,2.85-5.7,2.85h-561.49v-5.7l-2.85-37.05c0-22.8-.95-40.85-2.85-54.16l-2.85-14.24v-11.4l-2.85-37.05-5.7-34.2c-3.8-19-5.7-31.35-5.7-37.05-3.81-19-6.66-29.45-8.55-31.35l-5.7-25.65v-14.25l-17.1-79.8-25.65-94.06c-3.8-17.1-14.25-53.2-31.35-108.31l-14.25-39.9c0-3.8-1.9-7.6-5.7-11.4-1.9-3.8-5.7-4.75-11.4-2.85l-2.85,2.85c-7.6,3.8-12.35,2.85-14.25-2.85v-8.55l-2.85-14.25c0-22.8.95-39.9,2.85-51.31l8.55-68.4c3.8-9.51.95-12.36-8.55-8.55h-2.85l-11.4,2.85c-3.8,0-8.55.47-14.25,1.42-5.7.95-12.35,3.32-19.95,7.13l-5.69,2.85-31.35,5.7h-5.7c-3.8,0-5.7,1.9-5.7,5.69l8.55,14.25c9.5,7.6,16.15,19,19.95,34.2,7.6,13.3,13.77,28.98,18.52,47.03,4.75,18.05,8.08,30.88,9.98,38.48l2.85,5.7c0,1.9-.95,2.85-2.85,2.85h-2.85v-2.85l-8.55-8.55c-3.8-1.9-8.54-1.9-14.24,0l-8.55,5.7c-3.81,0-5.7,1.9-5.7,5.7s-.95,6.65-2.85,8.55c1.9,1.9,2.37,3.8,1.43,5.7-.95,1.9-1.43,3.8-1.43,5.7,3.8,3.8,4.75,8.55,2.85,14.25-1.9,1.9-2.38,3.8-1.43,5.7.95,1.9,2.37,2.85,4.28,2.85,3.8,3.8,5.7,6.65,5.7,8.55,1.9,3.8,2.37,7.13,1.42,9.98-.95,2.85-.48,6.17,1.43,9.98l2.85,31.35,5.7,45.6,2.85,45.6,5.69,62.71c0,9.5.95,16.15,2.85,19.95,1.9,3.8,2.85,9.5,2.85,17.1,0,3.81.95,6.66,2.85,8.55h1.43c.95,0,.48.95-1.43,2.85,0,5.7.95,9.51,2.85,11.4v5.7c-1.9,1.9-2.37,3.33-1.43,4.28.95.95,1.43,2.38,1.43,4.28l2.85,11.4v8.55c0,3.81.95,6.66,2.85,8.55v5.7c-1.9,1.9-2.85,3.8-2.85,5.7v25.65s-.47.48-1.43,1.43c-.95.95-.47,1.43,1.43,1.43l-2.85,5.7c3.8,0,5.7,1.9,5.7,5.7s-1.9,5.7-5.7,5.7h2.85c1.9,0,2.38,1.43,1.42,4.28-.95,2.85-2.37,4.28-4.28,4.28l-2.85,5.7s2.85,2.85,8.55,8.55c0,3.8-.95,5.7-2.85,5.7-1.9-1.9-3.8-2.85-5.7-2.85s-2.85-.95-2.85-2.85c-1.9,1.9-2.37,3.8-1.43,5.7.95,1.9.48,3.8-1.43,5.7l2.85,5.7c3.8,0,5.7-.95,5.7-2.85,3.8-3.8,6.66-3.8,8.55,0-3.8,3.8-5.7,5.7-5.7,5.7,0,3.8-.95,5.7-2.85,5.7-3.8,3.8-5.7,6.65-5.7,8.55s1.9,2.85,5.7,2.85c1.9,1.9,2.38,3.32,1.43,4.28-.95.95-1.43.47-1.43-1.42l5.7,11.4v2.85c5.7,0,6.65,1.9,2.85,5.7,1.9,1.9,2.85,5.7,2.85,11.4l-2.85,8.54c3.8-3.8,5.7-3.8,5.7,0l5.7,5.7-8.55,5.7-5.7-2.85c-1.9,1.9-1.9,3.33,0,4.28,1.9.95,2.85,2.38,2.85,4.28-3.8,0-5.7,2.85-5.7,8.55,1.9,0,2.38-.47,1.42-1.42-.95-.95-.47-1.43,1.43-1.43s2.85.48,2.85,1.43v1.42l5.7-2.85c3.8,0,4.75-.95,2.85-2.85v-2.85l2.85-2.85,2.85,2.85c0,3.81.95,5.7,2.85,5.7v8.55c1.9,5.7,5.7,8.55,11.4,8.55v-2.85c5.7-5.7,8.55-7.6,8.55-5.7l11.4-2.85c0-1.9,2.85-5.7,8.55-11.4l5.7,2.85c7.6,0,11.4,1.9,11.4,5.7l-5.7,11.4c0,3.8.95,5.7,2.85,5.7,3.8,0,5.7,2.85,5.7,8.55,0,1.9-.48,2.38-1.43,1.43-.95-.95-1.43-.47-1.43,1.43h1.43c.95,0,1.43.95,1.43,2.85v5.7c0,3.8.95,5.7,2.85,5.7,1.9,5.7,1.9,9.5,0,11.4,0,3.8,1.9,7.6,5.7,11.4,3.8,1.9,4.75,5.7,2.85,11.4h-159.61c0-1.9.95-2.85,2.85-2.85l2.85-5.7h-7.13c-.95,0-1.42-.95-1.42-2.85,0,0,.47-.48,1.42-1.43.95-.95.47-1.42-1.42-1.42-3.81,3.8-3.81,7.6,0,11.4,1.9,0,2.37.48,1.42,1.42-.95.95-1.42,1.43-1.42,1.43h-96.91v-62.71c0-43.7-.95-76-2.85-96.9l-2.85-25.65c-3.8-19-5.7-32.3-5.7-39.9l-2.85-25.65-2.85-31.35-5.7-114.01,2.85-62.71,8.55-39.9,2.85-11.4,2.85-31.35c3.8-30.4,8.55-53.2,14.25-68.4,1.9-5.7,0-11.4-5.7-17.1l-34.2-42.75-22.8-25.65c0-5.7-2.85-6.65-8.55-2.85-7.6,0-11.39,2.85-11.39,8.55,0,1.9-.95,2.85-2.85,2.85l-11.4,8.55c-5.7,1.9-11.4,0-17.1-5.7l-5.7-8.55v-5.7l105.45-76.95,22.8-17.1c3.8-3.8,3.8-6.66,0-8.55l-19.95-8.55-28.5-22.8c-9.5-7.6-27.55-29.45-54.15-65.56-5.7-5.7-9.98-11.4-12.83-17.1-2.85-5.7-6.18-10.45-9.98-14.25-20.91-20.9-36.11-38-45.6-51.31l-25.65-31.35-34.2-39.9c-7.6-7.6-11.4-11.4-11.4-11.4-7.6-7.6-12.35-14.25-14.25-19.95l-17.1-22.8c-3.8-1.9-5.7-5.7-5.7-11.4v-8.55l-2.85-5.7c0-1.9-.95-5.22-2.85-9.98-1.9-4.75-5.7-8.07-11.4-9.98v-5.7c-3.8-7.6-7.6-12.35-11.39-14.25-1.9-3.8-1.9-6.65,0-8.55v-2.85h5.69c0,1.9-.47,2.85-1.43,2.85h-1.42l5.69,2.85,5.7-2.85v-1.43c0-.95-.95-1.42-2.85-1.42l-2.85-2.85c-5.69,0-6.65-1.9-2.85-5.7,3.8-3.8,5.7-6.65,5.7-8.55,3.8,0,5.7-.95,5.7-2.85,1.9,0,2.85,1.9,2.85,5.7,3.8,3.8,6.66,5.7,8.55,5.7,3.81,3.8,4.75,6.66,2.85,8.55v5.7c1.9,1.9,3.8,4.28,5.7,7.13,1.9,2.85,2.85,6.18,2.85,9.98l5.7,11.4c1.9,3.8,4.75,5.7,8.55,5.7-3.8-3.8-5.7-10.45-5.7-19.95l-2.85-34.2c-3.8-11.39-2.85-20.9,2.85-28.5-3.8,0-4.75-1.9-2.85-5.7,0,0-.47-.48-1.43-1.43-.95-.95-.47-2.38,1.43-4.28,0,1.9,1.9,2.85,5.7,2.85,1.9-1.9,3.8-1.9,5.7,0v1.43c0,.95.95.47,2.85-1.43v-5.7c-3.8,0-6.65-.95-8.55-2.85,3.8-3.8,5.7-3.8,5.7,0h2.85c1.9-1.9,3.33-3.33,4.28-4.28.95-.95,1.43-2.38,1.43-4.28l5.7-25.65,2.85-28.5c1.9-5.7,2.85-16.15,2.85-31.35,0-5.7-.95-8.55-2.85-8.55-1.9-1.9-5.7-2.85-11.4-2.85h-11.4l-17.1-5.7c-5.7,0-8.55,2.85-8.55,8.55,1.9,1.9,1.9,4.75,0,8.55-1.9,3.8-2.85,6.65-2.85,8.55l-5.7,8.55c0,5.7-.95,9.5-2.85,11.4v5.7c1.9,1.9.95,3.8-2.85,5.7-1.9,0-2.85,1.9-2.85,5.7-3.8,3.8-5.69,8.55-5.69,14.25v2.85l-5.7,11.4,2.85,2.85h1.43c.95,0,.47.95-1.43,2.85-1.9,0-2.85.95-2.85,2.85,0,3.8-.95,8.07-2.85,12.83-1.9,4.75-2.85,9.02-2.85,12.83s.95,6.65,2.85,8.55c3.8,1.9,3.8,3.8,0,5.7-1.9,5.7-.95,9.5,2.85,11.39h1.42c.95,0,1.43.95,1.43,2.85-1.9,3.8-2.38,7.13-1.43,9.98.95,2.85,1.43,5.23,1.43,7.13s-.95,2.85-2.85,2.85-2.85.95-2.85,2.85h-5.7s-1.9-1.9-5.7-5.7c0-5.7-1.9-6.65-5.7-2.85-1.9,0-5.7,2.85-11.4,8.55l-8.55,14.25c-9.51,22.8-23.76,46.55-42.75,71.26l-28.5,48.46c-1.9,7.6-1.9,15.2,0,22.8l8.55,31.35,17.1,51.3,19.95,57.01,19.95,51.31,19.95,59.86,31.35,108.31,22.8,82.66,17.1,74.1,19.95,88.36,19.95,94.05,28.5,131.11,19.95,111.16,14.25,68.41v11.4H-332.57v-350.57h0Z"/>
  <path class="uuid-9fd03861-6434-4c78-ad1d-e225e8765cf2" d="m1152.39,98.22c-5.7,0-8.55-3.8-8.55-11.4l5.7-11.4c3.8-3.8,5.7-3.8,5.7,0,0,1.9.95,3.32,2.85,4.28,1.9.95,2.85,3.32,2.85,7.13,0,1.9-1.9,4.75-5.7,8.55,0,1.9-.48,2.85-1.43,2.85h-1.43Z"/>
  <path class="uuid-9fd03861-6434-4c78-ad1d-e225e8765cf2" d="m1163.79,175.17l2.85-8.55c1.9-1.9,5.7-2.85,11.4-2.85v5.7c-3.8,3.8-8.55,5.7-14.25,5.7h0Z"/>
  <path class="uuid-9fd03861-6434-4c78-ad1d-e225e8765cf2" d="m1183.74,226.48c1.9-1.9.95-4.75-2.85-8.55-1.9,0-2.85.48-2.85,1.43v1.43c0,3.8,1.9,5.7,5.7,5.7h0Z"/>
  <path class="uuid-9fd03861-6434-4c78-ad1d-e225e8765cf2" d="m1146.69,240.73c1.9,0,5.22-.95,9.98-2.85,4.75-1.9,8.07-4.75,9.98-8.55-1.9,0-3.33-.48-4.28-1.43-.95-.95-2.37-.48-4.28,1.43-1.9,0-2.85,1.9-2.85,5.7l-5.7,2.85v-8.55s-.48-.48-1.43-1.43c-.95-.95-1.43-.48-1.43,1.43l-5.7,5.7,5.7,5.7h0Z"/>
  <path class="uuid-9fd03861-6434-4c78-ad1d-e225e8765cf2" d="m1160.94,272.08v-5.7c-1.9-7.6.95-11.4,8.55-11.4,3.8,1.9,6.65,2.37,8.55,1.43,1.9-.95,3.8-1.43,5.7-1.43,3.8-3.8,3.8-6.65,0-8.55-1.9-3.8-4.75-3.8-8.55,0l-5.7,2.85c-7.6,1.9-11.4,0-11.4-5.7v-2.85c-1.9,0-4.28.48-7.13,1.42-2.85.95-4.28,2.37-4.28,4.28-1.9,5.7-5.7,9.5-11.4,11.4l-5.7,2.85c-3.8,0-4.75.95-2.85,2.85l2.85,2.85,2.85-5.7c3.8,0,6.65.95,8.55,2.85,0,3.8,2.85,4.75,8.55,2.85l2.85,5.7h8.55Z"/>
  <path class="uuid-9fd03861-6434-4c78-ad1d-e225e8765cf2" d="m1192.29,320.54c-1.9-1.9-2.38-3.33-1.43-4.28.95-.95,2.37-1.43,4.28-1.43v-8.55c0-3.81.95-5.7,2.85-5.7v-8.55l-2.85-5.7c-1.9,0-2.85-2.85-2.85-8.55-3.81,1.9-5.7,3.8-5.7,5.7s.47,3.32,1.43,4.28c.95.95,1.43,2.37,1.43,4.28,1.9,0,2.85.47,2.85,1.43v1.42c0,1.9.47,2.85,1.43,2.85h1.42l-2.85,2.85c-3.81,0-5.7,1.9-5.7,5.7v2.85c0,1.9-.48,2.85-1.42,2.85h-1.43c-3.8,0-4.75-.95-2.85-2.85l-2.85-8.55c-1.9,1.9-2.85,3.8-2.85,5.7s-.95,3.8-2.85,5.7c1.9,1.9,3.33,2.37,4.28,1.43.95-.95,1.43-.48,1.43,1.42,3.8,3.8,4.75,6.65,2.85,8.55,0,3.8,1.9,5.7,5.7,5.7l5.7-8.55h0Z"/>
  <path class="uuid-9fd03861-6434-4c78-ad1d-e225e8765cf2" d="m1126.74,254.98c1.9,0,3.8-.95,5.7-2.85,1.9-1.9,2.85-3.8,2.85-5.7l-2.85-2.85-8.55,5.7v2.85l2.85,2.85h0Z"/>
  <path class="uuid-9fd03861-6434-4c78-ad1d-e225e8765cf2" d="m981.38,152.37s2.85-2.85,8.55-8.55l14.25-19.95,11.4-11.4,5.7-8.55v-2.85h-5.7l-2.85,2.85-11.4,17.1c-7.6,7.6-12.36,13.3-14.25,17.1l-5.7,14.25h0Z"/>
  <path class="uuid-9fd03861-6434-4c78-ad1d-e225e8765cf2" d="m1024.13,166.62c3.8-11.4,7.6-19.95,11.4-25.65,0,0,.47-.47,1.42-1.43.95-.95.48-1.43-1.42-1.43h-2.85l-5.7,8.55c-3.8,7.6-7.6,12.36-11.4,14.25l-5.7,8.55v1.43c0,.95.95,1.43,2.85,1.43l11.4-5.7h0Z"/>
  <path class="uuid-9fd03861-6434-4c78-ad1d-e225e8765cf2" d="m1143.84,283.48c1.9,0,2.85-.95,2.85-2.85,1.9-1.9,1.9-3.33,0-4.28-1.9-.95-3.8-1.42-5.7-1.42l-2.85,5.7h2.85l2.85,2.85h0Z"/>
  <path class="uuid-9fd03861-6434-4c78-ad1d-e225e8765cf2" d="m1129.59,277.78l-2.85-5.7c-1.9,0-2.85.48-2.85,1.43v1.43c-1.9,1.9-1.9,3.33,0,4.28,1.9.95,2.85,2.37,2.85,4.28l2.85-5.7h0Z"/>
  <path class="uuid-9fd03861-6434-4c78-ad1d-e225e8765cf2" d="m1012.73,197.97c3.8-11.4,5.7-19,5.7-22.8,0,1.9-1.9,4.75-5.7,8.55,0,3.8-.95,4.75-2.85,2.85-1.9-1.9-2.85-2.37-2.85-1.43v1.43l-2.85,5.7c3.8,0,6.65,1.9,8.55,5.7h0Z"/>
  <path class="uuid-9fd03861-6434-4c78-ad1d-e225e8765cf2" d="m1178.04,368.98c1.9-1.9,2.85-4.75,2.85-8.55,0-1.9-1.9-2.85-5.7-2.85,0,1.9.48,3.33,1.43,4.28.95.95.48,2.38-1.43,4.28v1.43c0,.95.95,1.42,2.85,1.42h0Z"/>
  <path class="uuid-9fd03861-6434-4c78-ad1d-e225e8765cf2" d="m1163.79,366.13c3.8,0,5.7-.95,5.7-2.85v-2.85c-1.9,0-2.85-.47-2.85-1.43v-9.97h-5.7c-1.9,0-2.85.95-2.85,2.85s.95,4.28,2.85,7.12c1.9,2.85,1.9,5.23,0,7.13h2.85Z"/>
  <path class="uuid-9fd03861-6434-4c78-ad1d-e225e8765cf2" d="m1004.18,215.07c1.9,1.9,2.85,1.9,2.85,0,3.8-5.7,1.9-10.45-5.7-14.25,1.9,1.9,2.85,5.7,2.85,11.4v2.85h0Z"/>
  <path class="uuid-9fd03861-6434-4c78-ad1d-e225e8765cf2" d="m1172.34,394.64c3.8,1.9,7.6,1.9,11.4,0v-11.4c0-1.9-1.9-2.85-5.7-2.85-1.9,0-2.85.48-2.85,1.42s.95,1.43,2.85,1.43v5.7l-5.7,5.7h0Z"/>
  <path class="uuid-9fd03861-6434-4c78-ad1d-e225e8765cf2" d="m975.68,217.93c1.9,1.9,3.32,2.37,4.28,1.43.95-.95,1.43-1.43,1.43-1.43l-2.85-17.1c-3.8-7.6-3.8-14.25,0-19.95l2.85-22.8-2.85,5.7c-3.8,7.6-7.6,20.91-11.4,39.9v2.85l8.55,11.4h0Z"/>
  <path class="uuid-9fd03861-6434-4c78-ad1d-e225e8765cf2" d="m1166.64,380.39c-1.9,0-2.37-.47-1.43-1.43.95-.95.48-1.43-1.43-1.43s-2.37.48-1.42,1.43c.95.95.48,1.43-1.43,1.43,0,3.8.95,5.7,2.85,5.7l2.85-5.7h0Z"/>
  <path class="uuid-9fd03861-6434-4c78-ad1d-e225e8765cf2" d="m1183.74,408.89h1.43c.95,0,1.42-.95,1.42-2.85v-4.28c0-.95-.95-1.43-2.85-1.43-1.9-1.9-2.85-.95-2.85,2.85-1.9,0-2.37.48-1.43,1.42.95.95,1.43,1.43,1.43,1.43,0,1.9.95,2.85,2.85,2.85h0Z"/>
  <path class="uuid-9fd03861-6434-4c78-ad1d-e225e8765cf2" d="m1140.99,371.84c-1.9-3.8-1.9-6.65,0-8.55,3.8-3.8,6.65-4.75,8.55-2.85h5.7v-5.69c0-1.9-1.9-2.85-5.7-2.85,0,1.9-.48,2.85-1.43,2.85h-1.43c-1.9,5.69-4.75,6.65-8.55,2.84-1.9,0-2.85.48-2.85,1.42v1.43c1.9,1.9,2.37,3.8,1.42,5.7-.95,1.9-1.42,3.8-1.42,5.7,0,3.8.95,5.7,2.85,5.7,0,1.9.48,3.33,1.43,4.28.95.95,2.37.48,4.28-1.42l-2.85-8.55h0Z"/>
  <path class="uuid-9fd03861-6434-4c78-ad1d-e225e8765cf2" d="m1186.59,440.24c1.9,0,2.85-.95,2.85-2.85l-2.85-11.4c0-1.9-.48-2.85-1.42-2.85h-1.43c-1.9,0-2.85.95-2.85,2.85-1.9,0-2.37.48-1.43,1.42.95.95,1.43,1.43,1.43,1.43,1.9,0,3.32.48,4.28,1.43.95.95.47,2.37-1.43,4.28v2.85c0,1.9.47,2.85,1.43,2.85h1.42Z"/>
  <path class="uuid-9fd03861-6434-4c78-ad1d-e225e8765cf2" d="m722.01,331.94v-8.55c-1.9-1.9-3.33-2.38-4.28-1.42-.95.95-1.43,2.37-1.43,4.28-1.9,1.9-2.37,3.32-1.42,4.28.95.95,1.42,2.37,1.42,4.28l2.85,2.85,2.85-5.7h0Z"/>
  <path class="uuid-9fd03861-6434-4c78-ad1d-e225e8765cf2" d="m314.43,92.52c5.7,0,9.5-2.85,11.4-8.55h-8.55c-3.8,0-5.7,1.9-5.7,5.7v2.85h2.85Z"/>
  <path class="uuid-9fd03861-6434-4c78-ad1d-e225e8765cf2" d="m576.65,391.79c-9.51,0-15.21-3.8-17.1-11.4l-2.85-5.7c1.9-1.9,3.8-2.37,5.7-1.42,1.9.95,3.8.48,5.7-1.43l11.4,14.25c1.9,0,2.37.95,1.43,2.85-.95,1.9-2.38,2.85-4.28,2.85h0Z"/>
  <path class="uuid-9fd03861-6434-4c78-ad1d-e225e8765cf2" d="m391.38,950.43c5.7,1.9,10.45.95,14.25-2.85l2.85-5.7c9.51-13.3,15.21-20.9,17.1-22.8l17.1-19.95c9.5-5.7,14.25-13.3,14.25-22.8l2.85-5.7,5.7-8.55c1.9-3.8.95-9.5-2.85-17.1l-5.7-8.55-14.25-11.4-14.25-8.55c-1.9-5.7-1.9-10.45,0-14.25l2.85-5.7c9.51-19,15.21-29.45,17.1-31.35,3.8-5.7,7.6-14.25,11.4-25.65v-25.65l-2.85-8.55-8.55-17.1c-1.9-1.9-.95-5.7,2.85-11.4,1.9-1.9,2.85-4.75,2.85-8.55l-8.55-5.7c-3.8-3.8-5.7-5.7-5.7-5.7-3.8-9.5-1.9-15.2,5.7-17.1,1.9-1.9,3.8-3.8,5.7-5.7,1.9-1.9,4.75-2.85,8.55-2.85l5.7-2.85c7.6-7.6,14.25-11.4,19.95-11.4l11.4-5.7,11.4-8.55s1.9-1.9,5.7-5.7c0-5.7-1.9-8.55-5.7-8.55l-25.65-11.4c-11.4-3.8-19-5.69-22.8-5.69s-6.65-.95-8.55-2.85l-5.7-2.85c-5.7,0-8.55-2.85-8.55-8.55,0-1.9-.95-2.85-2.85-2.85-5.7,0-7.6-2.85-5.7-8.55,0,0,.48.47,1.43,1.43.95.95,1.42.47,1.42-1.43,3.8,0,7.13.95,9.98,2.85,2.85,1.9,5.23,2.85,7.13,2.85v2.85h-1.43c-.95,0-.47.95,1.43,2.85h2.85c0-3.8,1.9-3.8,5.7,0h5.7l17.1,2.85h5.7c5.7,0,6.65-3.8,2.85-11.4,0,0-.48-1.43-1.43-4.28s-.48-5.23,1.43-7.13h0c-1.9-1.9-.95-2.85,2.85-2.85h2.85c1.9,1.9,2.85,1.9,2.85,0,3.8-3.8,5.7-5.7,5.7-5.7h5.7c-1.9-1.9-1.9-2.85,0-2.85h11.4c3.8,1.9,4.75,3.8,2.85,5.7,0,3.8.95,5.7,2.85,5.7,1.9,1.9,2.37,3.32,1.42,4.28-.95.95-2.38,1.42-4.28,1.42l-2.85,2.85c0,1.9-2.85,2.85-8.55,2.85,3.8,5.7,2.85,8.55-2.85,8.55h5.7c1.9-1.9,4.28-2.38,7.13-1.42,2.85.95,5.22,1.42,7.13,1.42,5.7,1.9,14.25-.95,25.65-8.55l14.25-17.1c1.9-5.7,3.8-10.93,5.7-15.68,1.9-4.75,3.8-9.03,5.7-12.83,1.9-1.9,2.85-4.28,2.85-7.13s.95-5.22,2.85-7.13c1.9-1.9,2.85-4.75,2.85-8.55,0-7.6.95-13.3,2.85-17.1,3.8-7.6,5.7-13.3,5.7-17.1l2.84-19.95,5.7-34.2-2.85-8.55c0-5.7-2.85-9.5-8.54-11.4-3.8-5.7-3.8-10.45,0-14.25l14.24-11.39c3.8,0,5.7-3.8,5.7-11.4v-8.55c0-7.6,2.85-11.4,8.55-11.4,7.6,0,9.51-2.85,5.7-8.55v-8.55c-1.9-7.6,0-11.4,5.7-11.4,3.8-1.9,8.55-2.85,14.25-2.85l14.25,2.85c5.7,0,10.45.95,14.25,2.85l8.55,2.85c3.8,0,6.65.95,8.55,2.85l5.7,2.85,19.95,11.4,8.55,2.85c3.8,0,5.7-.95,5.7-2.85,3.8-9.51,4.75-16.15,2.85-19.95l-2.85-17.1c0-3.8-.95-6.65-2.85-8.55-1.9-1.9-2.85-4.75-2.85-8.55l-2.85-39.9c0-1.9-.48-3.8-1.43-5.7-.95-1.9-.48-3.8,1.43-5.7,3.8-9.5,6.65-14.25,8.55-14.25l2.85-2.85c3.8-11.4,5.7-20.9,5.7-28.5l-2.85-25.65c-1.9-11.4-6.65-26.61-14.25-45.6-11.4-22.8-18.05-39.9-19.95-51.31l-8.55-22.8c-5.7-11.4-13.3-19.95-22.8-25.65-9.5-5.7-20.9-6.65-34.2-2.85l-39.9,8.55-19.95,2.85-25.65,8.55c-9.51,1.9-14.25-1.9-14.25-11.4v-2.85l2.85-22.8,8.55-45.6c0-7.6.95-14.24,2.85-19.95l25.65-51.31,11.4-39.9c0-7.6,1.9-13.3,5.7-17.1,3.8-3.8,7.6-9.5,11.39-17.1,3.8-7.6,5.7-14.25,5.7-19.95l2.85-19.95c3.8-11.4,5.7-19,5.7-22.8l-2.85-25.65c-1.9-11.4-6.65-21.85-14.25-31.35-3.8-3.8-7.6-5.7-11.39-5.7h-8.55c-9.51,0-17.1,2.85-22.8,8.55-7.6,5.7-11.4,15.2-11.4,28.5,0,5.7-.95,10.45-2.85,14.24-7.6,3.8-8.55,9.51-2.85,17.1v5.7c-3.8,1.9-6.18,4.75-7.13,8.55-.95,3.81-1.42,6.66-1.42,8.55-1.9,3.8-.95,7.6,2.85,11.4l5.7,11.4v5.7c-3.8,0-5.7-.95-5.7-2.85-1.9-1.9-5.7-1.9-11.4,0l-2.85,2.85-19.95,25.65c-7.6,11.4-12.35,19.95-14.25,25.65l-5.7,5.7c-5.7,1.9-10.45,7.6-14.25,17.1-5.7,5.7-8.55,11.4-8.55,17.1,0,3.8-1.9,9.5-5.7,17.1-7.6,5.7-11.4,13.3-11.4,22.8,0,5.7-1.9,9.5-5.7,11.4l-5.7,2.85-11.4,14.24-5.7,5.7-8.55,14.25c-3.8,7.6-7.6,17.1-11.4,28.5l-2.85,5.7-11.4,14.25-17.1,25.65-17.1,22.8c-9.51,11.4-15.21,23.75-17.1,37.05,0,3.8.95,5.7,2.85,5.7l2.85,2.85c3.8,5.7,7.6,7.6,11.4,5.7,3.8-1.9,8.55,0,14.25,5.7,3.8,11.4,7.6,19,11.4,22.8l2.85,8.55,5.69,8.54,5.7,14.25c3.8,1.9,4.75,3.8,2.85,5.7,3.8,3.8,6.66,5.7,8.55,5.7,7.6,3.8,12.36,2.85,14.25-2.85,0,0,1.9,1.9,5.7,5.7,5.7,1.9,8.55,8.55,8.55,19.95,0,7.6,2.85,14.25,8.55,19.95l17.1,25.65c3.8,3.8,7.6,9.5,11.4,17.1,0,5.7.95,9.98,2.85,12.83,1.9,2.85,3.8,6.18,5.7,9.98l5.7,8.55,19.95,22.8c-1.9,0-2.85,1.9-2.85,5.7s-.95,5.7-2.85,5.7l-5.7,2.85-2.85,2.85c1.9,1.9,2.37,4.28,1.43,7.13-.95,2.85-.48,5.22,1.43,7.13,3.8,3.8,3.8,8.55,0,14.25,0,5.69.95,9.5,2.85,11.39h-11.4c-5.7,0-8.55,2.85-8.55,8.55l-8.55,5.7v11.4l-2.85,2.85c3.8,1.9,3.8,4.75,0,8.55,1.9,1.9,1.9,3.33,0,4.28-1.9.95-1.9,2.38,0,4.28l-2.85,2.85h-5.7l-2.85,2.85c-1.9,3.8-4.75,5.7-8.55,5.7l-5.7,2.85c1.9,0,2.85,1.9,2.85,5.7-1.9,0-2.85.48-2.85,1.43v1.42c-3.8-1.9-5.7-.95-5.7,2.85v8.55c-11.4,3.8-19,5.7-22.8,5.7-1.9,1.9-3.8,2.85-5.7,2.85-1.9,5.7-2.85,13.3-2.85,22.8l5.7,2.85c-5.7,3.8-10.45,2.85-14.25-2.85-1.9-1.9-2.85-3.8-2.85-5.7s-.95-2.85-2.85-2.85-3.32-1.43-4.28-4.28c-.95-2.85-2.37-5.22-4.27-7.13l-5.7-5.7,5.7-2.85c1.9,0,2.85-.95,2.85-2.85v-14.25c0-1.9-.48-2.37-1.43-1.42-.95.95-1.42.48-1.42-1.43,3.8-3.8,3.8-6.65,0-8.55-1.9,0-2.85-.47-2.85-1.42v-1.43c3.8-3.8,3.8-7.6,0-11.4v-2.85l-5.7-2.85-5.7,2.85h-2.85c-1.9,0-3.33.48-4.28,1.42-.95.95-.48,1.43,1.43,1.43,0,1.9-.48,3.33-1.43,4.28-.95.95-1.42,2.38-1.42,4.28l-2.85,5.7c0,1.9-.95,2.85-2.85,2.85h-5.7c-1.9,0-2.85,1.9-2.85,5.7s-.95,5.7-2.85,5.7c-3.8,3.8-4.75,6.65-2.85,8.55,1.9,0,2.85.95,2.85,2.85h-5.7c-3.8,1.9-5.7.95-5.7-2.85v-5.7c0-1.9-.95-2.85-2.85-2.85h-2.85v5.7c1.9,1.9,2.85,6.65,2.85,14.25l-2.85,5.7,5.7-2.85c0,3.8-.95,6.65-2.85,8.55,0,1.9-.48,1.9-1.43,0-.95-1.9-1.43-1.9-1.43,0h-8.55c-1.9-1.9-4.75-2.85-8.55-2.85-3.8,3.8-5.7,5.7-5.7,5.7-1.9,3.8-.95,7.6,2.85,11.4,1.9,1.9,1.9,2.85,0,2.85l-8.55,14.25c0,1.9-.95,2.85-2.85,2.85h-8.55c-3.8-1.9-5.7,0-5.7,5.7l2.85,8.55c0,13.3-.95,22.8-2.85,28.5-1.9,1.9-2.37,4.28-1.43,7.13.95,2.85,1.43,4.28,1.43,4.28l2.85,5.7h-5.7c-1.9-3.8-6.65-5.7-14.25-5.7-3.8,0-5.7,2.85-5.7,8.55,0,3.8-.95,7.6-2.85,11.4-1.9,3.8-4.75,6.65-8.55,8.54-7.6,0-12.35-1.9-14.25-5.7-3.8-1.9-5.7-5.69-5.7-11.39,0-7.6-1.9-12.36-5.7-14.25l-5.7-2.85c-5.7-1.9-10.45-.95-14.25,2.85-3.8,1.9-7.6,6.65-11.4,14.25-1.9,5.7-6.65,14.24-14.25,25.65-7.6,7.6-9.5,19-5.7,34.2,1.9,17.1,9.51,35.15,22.8,54.16,9.51,15.2,18.53,28.98,27.08,41.33,8.55,12.35,16.63,23.27,24.23,32.78l31.35,48.45c7.6,9.51,17.1,23.76,28.5,42.75,11.4,19,19,33.26,22.8,42.75l5.7,14.25,8.55,11.4c5.7,1.9,10.45.95,14.25-2.85l5.7-5.7c3.8-3.8,7.6-2.85,11.4,2.85l8.55,17.1c1.9,5.7,6.65,12.35,14.24,19.95l5.7,5.7h0Z"/>
  <path class="uuid-9fd03861-6434-4c78-ad1d-e225e8765cf2" d="m328.68,300.58c5.7,1.9,8.55,0,8.55-5.7s-3.8-10.45-11.4-14.25c-5.7,0-8.55,2.85-8.55,8.55v2.85c3.8,5.7,7.6,8.55,11.4,8.55h0Z"/>
  <path class="uuid-9fd03861-6434-4c78-ad1d-e225e8765cf2" d="m428.43,730.97c-3.8,0-5.7-1.9-5.7-5.7,0-5.7.95-9.5,2.85-11.4,1.9,0,2.85-1.9,2.85-5.7,3.8-3.8,5.7-3.8,5.7,0l2.85,2.85c0,3.8.95,6.65,2.85,8.55,0,7.6-3.8,11.4-11.4,11.4h0Z"/>
</svg>